<?xml version="1.0" encoding="UTF-8"?>
<svg id="Layer_1" data-name="Layer 1" xmlns="http://www.w3.org/2000/svg" version="1.1" viewBox="0 0 586.13 589.22">
  <defs>
    <style>
      .cls-1 {
        font-size: 36px;
      }

      .cls-1, .cls-2, .cls-3, .cls-4 {
        isolation: isolate;
      }

      .cls-1, .cls-4 {
        fill: #010101;
        font-family: MyriadPro-Bold, 'Myriad Pro';
        font-weight: 700;
      }

      .cls-5 {
        stroke: #27aae1;
        stroke-linejoin: round;
        stroke-width: 5px;
      }

      .cls-5, .cls-6 {
        fill: none;
      }

      .cls-6 {
        stroke: #7f1f17;
        stroke-width: 10px;
      }

      .cls-6, .cls-2 {
        stroke-miterlimit: 10;
      }

      .cls-7 {
        fill: #7f1f17;
        stroke-width: 0px;
      }

      .cls-2 {
        fill: #fff;
        opacity: .77;
        stroke: #231f20;
      }

      .cls-4 {
        font-size: 20.42px;
      }
    </style>
  </defs>
  <rect class="cls-2" x="9.64" y="518.77" width="63.16" height="63.16"/>
  <rect class="cls-2" x="72.8" y="518.77" width="63.16" height="63.16"/>
  <rect class="cls-2" x="135.96" y="518.77" width="63.16" height="63.16"/>
  <rect class="cls-2" x="199.12" y="518.77" width="63.16" height="63.16"/>
  <rect class="cls-2" x="262.28" y="518.77" width="63.16" height="63.16"/>
  <rect class="cls-2" x="325.43" y="518.77" width="63.16" height="63.16"/>
  <rect class="cls-2" x="388.59" y="518.77" width="63.16" height="63.16"/>
  <polyline class="cls-6" points="228.67 41.81 230.7 362.71 545.33 362.71"/>
  <path class="cls-7" d="M228.74,48.99l14.49,8.63.32-.5-9.55-23.41c-1.88-8.17-3.75-16.34-5.63-24.51-1.73,8.2-3.45,16.41-5.18,24.61l-9.12,23.58.25.49,14.41-8.9h0Z"/>
  <path class="cls-7" d="M538.15,362.71l-8.77-14.41.49-.33,23.5,9.33c8.19,1.8,16.37,3.6,24.56,5.4-8.19,1.8-16.37,3.6-24.56,5.4l-23.5,9.33-.49-.25,8.77-14.49v.02h0Z"/>
  <g class="cls-3">
    <g class="cls-3">
      <g class="cls-3">
        <g class="cls-3">
          <text class="cls-1" transform="translate(545.33 337)"><tspan x="0" y="0">X</tspan></text>
        </g>
      </g>
    </g>
  </g>
  <g class="cls-3">
    <g class="cls-3">
      <g class="cls-3">
        <g class="cls-3">
          <text class="cls-1" transform="translate(243.55 36.81)"><tspan x="0" y="0">Y</tspan></text>
        </g>
      </g>
    </g>
  </g>
  <rect class="cls-2" x="9.64" y="76.66" width="63.16" height="63.16"/>
  <rect class="cls-2" x="72.8" y="76.66" width="63.16" height="63.16"/>
  <rect class="cls-2" x="135.96" y="76.66" width="63.16" height="63.16"/>
  <rect class="cls-2" x="199.12" y="76.66" width="63.16" height="63.16"/>
  <rect class="cls-2" x="262.28" y="76.66" width="63.16" height="63.16"/>
  <rect class="cls-2" x="325.43" y="76.66" width="63.16" height="63.16"/>
  <rect class="cls-2" x="388.59" y="76.66" width="63.16" height="63.16"/>
  <rect class="cls-2" x="9.64" y="139.82" width="63.16" height="63.16"/>
  <rect class="cls-2" x="199.12" y="139.82" width="63.16" height="63.16"/>
  <rect class="cls-2" x="262.28" y="139.82" width="63.16" height="63.16"/>
  <rect class="cls-2" x="9.64" y="202.97" width="63.16" height="63.16"/>
  <rect class="cls-2" x="199.12" y="202.97" width="63.16" height="63.16"/>
  <rect class="cls-2" x="262.28" y="202.97" width="63.16" height="63.16"/>
  <rect class="cls-2" x="9.64" y="266.13" width="63.16" height="63.16"/>
  <rect class="cls-2" x="72.8" y="266.13" width="63.16" height="63.16"/>
  <rect class="cls-2" x="135.96" y="266.13" width="63.16" height="63.16"/>
  <rect class="cls-2" x="199.12" y="266.13" width="63.16" height="63.16"/>
  <rect class="cls-2" x="262.28" y="266.13" width="63.16" height="63.16"/>
  <rect class="cls-2" x="325.43" y="266.13" width="63.16" height="63.16"/>
  <rect class="cls-2" x="388.59" y="266.13" width="63.16" height="63.16"/>
  <rect class="cls-2" x="9.64" y="329.29" width="63.16" height="63.16"/>
  <rect class="cls-2" x="72.8" y="329.29" width="63.16" height="63.16"/>
  <rect class="cls-2" x="135.96" y="329.29" width="63.16" height="63.16"/>
  <rect class="cls-2" x="199.12" y="329.29" width="63.16" height="63.16"/>
  <rect class="cls-2" x="262.28" y="329.29" width="63.16" height="63.16"/>
  <rect class="cls-2" x="325.43" y="329.29" width="63.16" height="63.16"/>
  <rect class="cls-2" x="388.59" y="329.29" width="63.16" height="63.16"/>
  <rect class="cls-2" x="9.64" y="392.45" width="63.16" height="63.16"/>
  <rect class="cls-2" x="199.12" y="392.45" width="63.16" height="63.16"/>
  <rect class="cls-2" x="262.28" y="392.45" width="63.16" height="63.16"/>
  <rect class="cls-2" x="9.64" y="455.61" width="63.16" height="63.16"/>
  <rect class="cls-2" x="199.12" y="455.61" width="63.16" height="63.16"/>
  <rect class="cls-2" x="262.28" y="455.61" width="63.16" height="63.16"/>
  <g class="cls-3">
    <g class="cls-3">
      <g class="cls-3">
        <g class="cls-3">
          <text class="cls-4" transform="translate(273.46 303.7)"><tspan x="0" y="0">(1,1)</tspan></text>
        </g>
      </g>
    </g>
  </g>
  <g class="cls-3">
    <g class="cls-3">
      <g class="cls-3">
        <g class="cls-3">
          <text class="cls-4" transform="translate(210.3 303.7)"><tspan x="0" y="0">(0,1)</tspan></text>
        </g>
      </g>
    </g>
  </g>
  <g class="cls-3">
    <g class="cls-3">
      <g class="cls-3">
        <g class="cls-3">
          <text class="cls-4" transform="translate(210.3 366.86)"><tspan x="0" y="0">(0,0)</tspan></text>
        </g>
      </g>
    </g>
  </g>
  <g class="cls-3">
    <g class="cls-3">
      <g class="cls-3">
        <g class="cls-3">
          <text class="cls-4" transform="translate(273.46 366.86)"><tspan x="0" y="0">(1,0)</tspan></text>
        </g>
      </g>
    </g>
  </g>
  <rect class="cls-2" x="72.8" y="139.81" width="63.16" height="63.16"/>
  <rect class="cls-2" x="135.96" y="139.81" width="63.16" height="63.16"/>
  <rect class="cls-2" x="72.8" y="202.97" width="63.16" height="63.16"/>
  <rect class="cls-2" x="135.96" y="202.97" width="63.16" height="63.16"/>
  <g class="cls-3">
    <g class="cls-3">
      <g class="cls-3">
        <g class="cls-3">
          <text class="cls-4" transform="translate(143.85 177.38)"><tspan x="0" y="0">(-1,3)</tspan></text>
        </g>
      </g>
    </g>
  </g>
  <g class="cls-3">
    <g class="cls-3">
      <g class="cls-3">
        <g class="cls-3">
          <text class="cls-4" transform="translate(80.69 177.38)"><tspan x="0" y="0">(-2,3)</tspan></text>
        </g>
      </g>
    </g>
  </g>
  <g class="cls-3">
    <g class="cls-3">
      <g class="cls-3">
        <g class="cls-3">
          <text class="cls-4" transform="translate(80.69 240.54)"><tspan x="0" y="0">(-2,2)</tspan></text>
        </g>
      </g>
    </g>
  </g>
  <g class="cls-3">
    <g class="cls-3">
      <g class="cls-3">
        <g class="cls-3">
          <text class="cls-4" transform="translate(143.85 240.54)"><tspan x="0" y="0">(-1,2)</tspan></text>
        </g>
      </g>
    </g>
  </g>
  <rect class="cls-2" x="72.8" y="392.45" width="63.16" height="63.16"/>
  <rect class="cls-2" x="135.96" y="392.45" width="63.16" height="63.16"/>
  <rect class="cls-2" x="72.8" y="455.61" width="63.16" height="63.16"/>
  <rect class="cls-2" x="135.96" y="455.61" width="63.16" height="63.16"/>
  <g class="cls-3">
    <g class="cls-3">
      <g class="cls-3">
        <g class="cls-3">
          <text class="cls-4" transform="translate(140.56 430.02)"><tspan x="0" y="0">(-1,-1)</tspan></text>
        </g>
      </g>
    </g>
  </g>
  <g class="cls-3">
    <g class="cls-3">
      <g class="cls-3">
        <g class="cls-3">
          <text class="cls-4" transform="translate(77.4 430.02)"><tspan x="0" y="0">(-2,-1)</tspan></text>
        </g>
      </g>
    </g>
  </g>
  <g class="cls-3">
    <g class="cls-3">
      <g class="cls-3">
        <g class="cls-3">
          <text class="cls-4" transform="translate(77.4 493.18)"><tspan x="0" y="0">(-2,-2)</tspan></text>
        </g>
      </g>
    </g>
  </g>
  <g class="cls-3">
    <g class="cls-3">
      <g class="cls-3">
        <g class="cls-3">
          <text class="cls-4" transform="translate(140.56 493.18)"><tspan x="0" y="0">(-1,-2)</tspan></text>
        </g>
      </g>
    </g>
  </g>
  <rect class="cls-2" x="325.43" y="392.45" width="63.16" height="63.16"/>
  <rect class="cls-2" x="388.59" y="392.45" width="63.16" height="63.16"/>
  <rect class="cls-2" x="325.43" y="455.61" width="63.16" height="63.16"/>
  <rect class="cls-2" x="388.59" y="455.61" width="63.16" height="63.16"/>
  <g class="cls-3">
    <g class="cls-3">
      <g class="cls-3">
        <g class="cls-3">
          <text class="cls-4" transform="translate(396.48 430.02)"><tspan x="0" y="0">(3,-1)</tspan></text>
        </g>
      </g>
    </g>
  </g>
  <g class="cls-3">
    <g class="cls-3">
      <g class="cls-3">
        <g class="cls-3">
          <text class="cls-4" transform="translate(333.32 430.02)"><tspan x="0" y="0">(2,-1)</tspan></text>
        </g>
      </g>
    </g>
  </g>
  <g class="cls-3">
    <g class="cls-3">
      <g class="cls-3">
        <g class="cls-3">
          <text class="cls-4" transform="translate(333.32 493.18)"><tspan x="0" y="0">(2,-2)</tspan></text>
        </g>
      </g>
    </g>
  </g>
  <g class="cls-3">
    <g class="cls-3">
      <g class="cls-3">
        <g class="cls-3">
          <text class="cls-4" transform="translate(396.48 493.18)"><tspan x="0" y="0">(3,-2)</tspan></text>
        </g>
      </g>
    </g>
  </g>
  <rect class="cls-2" x="325.43" y="139.81" width="63.16" height="63.16"/>
  <rect class="cls-2" x="388.59" y="139.81" width="63.16" height="63.16"/>
  <rect class="cls-2" x="325.43" y="202.97" width="63.16" height="63.16"/>
  <rect class="cls-2" x="388.59" y="202.97" width="63.16" height="63.16"/>
  <g class="cls-3">
    <g class="cls-3">
      <g class="cls-3">
        <g class="cls-3">
          <text class="cls-4" transform="translate(399.77 177.38)"><tspan x="0" y="0">(3,3)</tspan></text>
        </g>
      </g>
    </g>
  </g>
  <g class="cls-3">
    <g class="cls-3">
      <g class="cls-3">
        <g class="cls-3">
          <text class="cls-4" transform="translate(336.61 177.38)"><tspan x="0" y="0">(2,3)</tspan></text>
        </g>
      </g>
    </g>
  </g>
  <g class="cls-3">
    <g class="cls-3">
      <g class="cls-3">
        <g class="cls-3">
          <text class="cls-4" transform="translate(336.61 240.54)"><tspan x="0" y="0">(2,2)</tspan></text>
        </g>
      </g>
    </g>
  </g>
  <g class="cls-3">
    <g class="cls-3">
      <g class="cls-3">
        <g class="cls-3">
          <text class="cls-4" transform="translate(399.77 240.54)"><tspan x="0" y="0">(3,2)</tspan></text>
        </g>
      </g>
    </g>
  </g>
  <rect class="cls-2" x="451.75" y="518.77" width="63.16" height="63.16"/>
  <rect class="cls-2" x="451.75" y="76.66" width="63.16" height="63.16"/>
  <rect class="cls-2" x="451.75" y="139.82" width="63.16" height="63.16"/>
  <rect class="cls-2" x="451.75" y="202.97" width="63.16" height="63.16"/>
  <rect class="cls-2" x="451.75" y="266.13" width="63.16" height="63.16"/>
  <rect class="cls-2" x="451.75" y="329.29" width="63.16" height="63.16"/>
  <rect class="cls-2" x="451.75" y="392.45" width="63.16" height="63.16"/>
  <rect class="cls-2" x="451.75" y="455.61" width="63.16" height="63.16"/>
  <polygon class="cls-5" points="262.28 202.97 262.28 329.29 135.96 329.29 262.28 202.97"/>
  <polygon class="cls-5" points="388.6 329.29 262.28 329.29 262.28 202.97 388.6 329.29"/>
  <polygon class="cls-5" points="262.28 455.61 262.28 329.29 388.6 329.29 262.28 455.61"/>
  <polygon class="cls-5" points="135.96 329.29 262.28 329.29 262.28 455.61 135.96 329.29"/>
  <polygon class="cls-5" points="135.96 76.65 135.96 202.97 9.64 202.97 135.96 76.65"/>
  <polygon class="cls-5" points="262.28 202.97 135.96 202.97 135.96 76.65 262.28 202.97"/>
  <polygon class="cls-5" points="135.96 329.29 135.96 202.97 262.28 202.97 135.96 329.29"/>
  <polygon class="cls-5" points="9.64 202.97 135.96 202.97 135.96 329.29 9.64 202.97"/>
  <polygon class="cls-5" points="9.64 202.97 9.64 76.65 135.96 76.65 9.64 202.97"/>
  <polygon class="cls-5" points="262.28 202.98 262.28 76.66 388.6 76.66 262.28 202.98"/>
  <polygon class="cls-5" points="135.96 76.66 262.28 76.66 262.28 202.98 135.96 76.66"/>
  <polygon class="cls-5" points="388.59 76.65 388.59 202.97 262.27 202.97 388.59 76.65"/>
  <polygon class="cls-5" points="514.91 202.97 388.59 202.97 388.59 76.65 514.91 202.97"/>
  <polygon class="cls-5" points="388.59 329.29 388.59 202.97 514.91 202.97 388.59 329.29"/>
  <polygon class="cls-5" points="262.27 202.97 388.59 202.97 388.59 329.29 262.27 202.97"/>
  <polygon class="cls-5" points="514.91 202.97 514.91 329.29 388.59 329.29 514.91 202.97"/>
  <polygon class="cls-5" points="388.59 329.29 514.91 329.29 514.91 455.61 388.59 329.29"/>
  <polygon class="cls-5" points="388.6 329.29 388.6 455.61 262.28 455.61 388.6 329.29"/>
  <polygon class="cls-5" points="514.92 455.61 388.6 455.61 388.6 329.29 514.92 455.61"/>
  <polygon class="cls-5" points="388.6 581.93 388.6 455.61 514.92 455.61 388.6 581.93"/>
  <polygon class="cls-5" points="262.28 455.61 388.6 455.61 388.6 581.93 262.28 455.61"/>
  <polygon class="cls-5" points="135.96 329.29 135.96 455.61 9.64 455.61 135.96 329.29"/>
  <polygon class="cls-5" points="262.28 455.61 135.96 455.61 135.96 329.29 262.28 455.61"/>
  <polygon class="cls-5" points="135.96 581.93 135.96 455.61 262.28 455.61 135.96 581.93"/>
  <polygon class="cls-5" points="9.64 455.61 135.96 455.61 135.96 581.93 9.64 455.61"/>
  <polygon class="cls-5" points="135.96 329.29 9.64 329.29 9.64 202.97 135.96 329.29"/>
  <polygon class="cls-5" points="9.64 455.61 9.64 329.29 135.96 329.29 9.64 455.61"/>
  <polygon class="cls-5" points="388.59 76.65 514.91 76.65 514.91 202.97 388.59 76.65"/>
</svg>