<?xml version="1.0" encoding="UTF-8"?>
<svg id="Layer_1" data-name="Layer 1" xmlns="http://www.w3.org/2000/svg" version="1.1" viewBox="0 0 669.3 492.89">
  <defs>
    <style>
      .cls-1 {
        stroke: #27aae1;
        stroke-linejoin: round;
        stroke-width: 6.95px;
      }

      .cls-1, .cls-2 {
        fill: none;
      }

      .cls-2 {
        stroke: #7f1f17;
        stroke-width: 7.41px;
      }

      .cls-2, .cls-3 {
        stroke-miterlimit: 10;
      }

      .cls-3 {
        fill: #fff;
        opacity: .5;
        stroke: #231f20;
        stroke-width: .75px;
      }

      .cls-3, .cls-4, .cls-5, .cls-6 {
        isolation: isolate;
      }

      .cls-4 {
        font-size: 26.68px;
      }

      .cls-4, .cls-5 {
        fill: #010101;
        font-family: MyriadPro-Bold, 'Myriad Pro';
        font-weight: 700;
      }

      .cls-7 {
        fill: #7f1f17;
        stroke-width: 0px;
      }

      .cls-5 {
        font-size: 15.13px;
      }
    </style>
  </defs>
  <g>
    <polyline class="cls-2" points="387.76 29.95 209.18 339.76 637.28 339.76"/>
    <path class="cls-7" d="M385.09,34.56l6,10.97.39-.2,2.72-18.54c1.88-5.92,3.76-11.84,5.63-17.77-4.19,4.59-8.38,9.17-12.57,13.76l-14.7,11.62-.02.41,12.55-.26h0Z"/>
    <path class="cls-7" d="M631.96,339.76l-6.5-10.68.36-.24,17.42,6.92c6.07,1.33,12.14,2.67,18.2,4-6.07,1.33-12.13,2.67-18.2,4.01l-17.42,6.92-.36-.18,6.5-10.74h0Z"/>
  </g>
  <polygon class="cls-3" points="232.3 353.11 232.3 326.41 209.18 313.07 186.06 326.41 186.06 353.11 209.18 366.46 232.3 353.11"/>
  <g class="cls-6">
    <text class="cls-5" transform="translate(194.06 344.21)"><tspan x="0" y="0">(0,0)</tspan></text>
  </g>
  <polygon class="cls-3" points="278.54 353.11 278.54 326.41 255.42 313.07 232.3 326.41 232.3 353.11 255.42 366.46 278.54 353.11"/>
  <polygon class="cls-3" points="324.77 353.11 324.77 326.41 301.66 313.07 278.54 326.41 278.54 353.11 301.66 366.46 324.77 353.11"/>
  <polygon class="cls-3" points="371.01 353.11 371.01 326.41 347.89 313.07 324.77 326.41 324.77 353.11 347.89 366.46 371.01 353.11"/>
  <polygon class="cls-3" points="417.25 353.1 417.25 326.4 394.13 313.06 371.01 326.4 371.01 353.1 394.13 366.45 417.25 353.1"/>
  <g class="cls-6">
    <text class="cls-5" transform="translate(332.77 344.21)"><tspan x="0" y="0">(3,0)</tspan></text>
  </g>
  <polygon class="cls-3" points="139.83 353.11 139.83 326.41 116.71 313.07 93.59 326.41 93.59 353.11 116.71 366.46 139.83 353.11"/>
  <polygon class="cls-3" points="186.06 353.11 186.06 326.41 162.94 313.07 139.83 326.41 139.83 353.11 162.94 366.46 186.06 353.11"/>
  <polygon class="cls-3" points="255.42 313.07 255.42 286.37 232.3 273.02 209.18 286.37 209.18 313.07 232.3 326.41 255.42 313.07"/>
  <polygon class="cls-3" points="301.66 313.07 301.66 286.37 278.54 273.02 255.42 286.37 255.42 313.07 278.54 326.41 301.66 313.07"/>
  <polygon class="cls-3" points="347.89 313.07 347.89 286.37 324.77 273.02 301.66 286.37 301.66 313.07 324.77 326.41 347.89 313.07"/>
  <polygon class="cls-3" points="394.13 313.07 394.13 286.37 371.01 273.02 347.89 286.37 347.89 313.07 371.01 326.41 394.13 313.07"/>
  <polygon class="cls-3" points="116.71 313.07 116.71 286.37 93.59 273.02 70.47 286.37 70.47 313.07 93.59 326.41 116.71 313.07"/>
  <polygon class="cls-3" points="162.94 313.07 162.94 286.37 139.83 273.02 116.71 286.37 116.71 313.07 139.83 326.41 162.94 313.07"/>
  <polygon class="cls-3" points="209.18 313.07 209.18 286.37 186.06 273.02 162.94 286.37 162.94 313.07 186.06 326.41 209.18 313.07"/>
  <polygon class="cls-3" points="278.54 273.02 278.54 246.33 255.42 232.98 232.3 246.33 232.3 273.02 255.42 286.37 278.54 273.02"/>
  <polygon class="cls-3" points="324.77 273.02 324.77 246.33 301.66 232.98 278.54 246.33 278.54 273.02 301.66 286.37 324.77 273.02"/>
  <polygon class="cls-3" points="371.01 273.02 371.01 246.33 347.89 232.98 324.77 246.33 324.77 273.02 347.89 286.37 371.01 273.02"/>
  <g class="cls-6">
    <text class="cls-5" transform="translate(332.77 264.12)"><tspan x="0" y="0">(2,2)</tspan></text>
  </g>
  <polygon class="cls-3" points="417.25 273.02 417.25 246.33 394.13 232.98 371.01 246.33 371.01 273.02 394.13 286.37 417.25 273.02"/>
  <polygon class="cls-3" points="139.83 273.02 139.83 246.33 116.71 232.98 93.59 246.33 93.59 273.02 116.71 286.37 139.83 273.02"/>
  <polygon class="cls-3" points="186.06 273.02 186.06 246.33 162.94 232.98 139.83 246.33 139.83 273.02 162.94 286.37 186.06 273.02"/>
  <polygon class="cls-3" points="232.3 273.02 232.3 246.33 209.18 232.98 186.06 246.33 186.06 273.02 209.18 286.37 232.3 273.02"/>
  <polygon class="cls-3" points="301.66 232.98 301.66 206.28 278.54 192.94 255.42 206.28 255.42 232.98 278.54 246.33 301.66 232.98"/>
  <g class="cls-6">
    <text class="cls-5" transform="translate(263.42 224.08)"><tspan x="0" y="0">(0,3)</tspan></text>
  </g>
  <polygon class="cls-3" points="347.89 232.98 347.89 206.28 324.77 192.94 301.66 206.28 301.66 232.98 324.77 246.33 347.89 232.98"/>
  <polygon class="cls-3" points="394.13 232.98 394.13 206.28 371.01 192.94 347.89 206.28 347.89 232.98 371.01 246.33 394.13 232.98"/>
  <polygon class="cls-3" points="162.94 232.98 162.94 206.28 139.83 192.94 116.71 206.28 116.71 232.98 139.83 246.33 162.94 232.98"/>
  <g class="cls-6">
    <text class="cls-5" transform="translate(122.27 224.08)"><tspan x="0" y="0">(-3,3)</tspan></text>
  </g>
  <polygon class="cls-3" points="209.18 232.98 209.18 206.28 186.06 192.94 162.94 206.28 162.94 232.98 186.06 246.33 209.18 232.98"/>
  <polygon class="cls-3" points="255.42 232.98 255.42 206.28 232.3 192.94 209.18 206.28 209.18 232.98 232.3 246.33 255.42 232.98"/>
  <polygon class="cls-3" points="162.94 473.24 162.94 446.54 139.83 433.19 116.71 446.54 116.71 473.24 139.83 486.58 162.94 473.24"/>
  <polygon class="cls-3" points="209.18 473.24 209.18 446.54 186.06 433.19 162.94 446.54 162.94 473.24 186.06 486.58 209.18 473.24"/>
  <polygon class="cls-3" points="255.42 473.24 255.42 446.54 232.3 433.19 209.18 446.54 209.18 473.24 232.3 486.58 255.42 473.24"/>
  <polygon class="cls-3" points="301.66 473.24 301.66 446.54 278.54 433.19 255.42 446.54 255.42 473.24 278.54 486.58 301.66 473.24"/>
  <polygon class="cls-3" points="347.89 473.24 347.89 446.54 324.77 433.19 301.66 446.54 301.66 473.24 324.77 486.58 347.89 473.24"/>
  <polygon class="cls-3" points="347.89 393.15 347.89 366.46 324.77 353.11 301.66 366.46 301.66 393.15 324.77 406.5 347.89 393.15"/>
  <polygon class="cls-3" points="116.71 473.24 116.71 446.54 93.59 433.19 70.47 446.54 70.47 473.24 93.59 486.58 116.71 473.24"/>
  <polygon class="cls-3" points="394.13 473.24 394.13 446.54 371.01 433.19 347.89 446.54 347.89 473.24 371.01 486.58 394.13 473.24"/>
  <polygon class="cls-3" points="417.25 433.2 417.25 406.5 394.13 393.15 371.01 406.5 371.01 433.2 394.13 446.54 417.25 433.2"/>
  <polygon class="cls-3" points="116.71 232.99 116.71 206.29 93.59 192.94 70.47 206.29 70.47 232.99 93.59 246.33 116.71 232.99"/>
  <polygon class="cls-3" points="93.59 433.2 93.59 406.5 70.47 393.15 47.35 406.5 47.35 433.2 70.47 446.54 93.59 433.2"/>
  <g class="cls-6">
    <text class="cls-5" transform="translate(50.48 424.29)"><tspan x="0" y="0">(-2,-2)</tspan></text>
  </g>
  <polygon class="cls-3" points="93.59 273.03 93.59 246.33 70.47 232.98 47.35 246.33 47.35 273.03 70.47 286.37 93.59 273.03"/>
  <g class="cls-6">
    <text class="cls-5" transform="translate(52.92 264.12)"><tspan x="0" y="0">(-4,2)</tspan></text>
  </g>
  <polygon class="cls-3" points="186.06 433.19 186.06 406.5 162.94 393.15 139.83 406.5 139.83 433.19 162.94 446.54 186.06 433.19"/>
  <polygon class="cls-3" points="232.3 433.19 232.3 406.5 209.18 393.15 186.06 406.5 186.06 433.19 209.18 446.54 232.3 433.19"/>
  <polygon class="cls-3" points="278.54 433.19 278.54 406.5 255.42 393.15 232.3 406.5 232.3 433.19 255.42 446.54 278.54 433.19"/>
  <polygon class="cls-3" points="324.77 433.19 324.77 406.5 301.66 393.15 278.54 406.5 278.54 433.19 301.66 446.54 324.77 433.19"/>
  <polygon class="cls-3" points="371.01 433.19 371.01 406.5 347.89 393.15 324.77 406.5 324.77 433.19 347.89 446.54 371.01 433.19"/>
  <g class="cls-6">
    <text class="cls-5" transform="translate(330.34 424.29)"><tspan x="0" y="0">(4,-2)</tspan></text>
  </g>
  <polygon class="cls-3" points="139.83 433.19 139.83 406.5 116.71 393.15 93.59 406.5 93.59 433.19 116.71 446.54 139.83 433.19"/>
  <polygon class="cls-3" points="209.18 393.15 209.18 366.46 186.06 353.11 162.94 366.46 162.94 393.15 186.06 406.5 209.18 393.15"/>
  <polygon class="cls-3" points="255.42 393.15 255.42 366.46 232.3 353.11 209.18 366.46 209.18 393.15 232.3 406.5 255.42 393.15"/>
  <polygon class="cls-3" points="301.66 393.15 301.66 366.46 278.54 353.11 255.42 366.46 255.42 393.15 278.54 406.5 301.66 393.15"/>
  <polygon class="cls-3" points="394.13 393.15 394.13 366.46 371.01 353.11 347.89 366.46 347.89 393.15 371.01 406.5 394.13 393.15"/>
  <polygon class="cls-3" points="116.71 393.15 116.71 366.46 93.59 353.11 70.47 366.46 70.47 393.15 93.59 406.5 116.71 393.15"/>
  <polygon class="cls-3" points="162.94 393.15 162.94 366.46 139.83 353.11 116.71 366.46 116.71 393.15 139.83 406.5 162.94 393.15"/>
  <polygon class="cls-3" points="555.96 353.1 555.96 326.4 532.84 313.06 509.72 326.4 509.72 353.1 532.84 366.45 555.96 353.1"/>
  <polygon class="cls-3" points="602.2 353.1 602.2 326.4 579.08 313.06 555.96 326.4 555.96 353.1 579.08 366.45 602.2 353.1"/>
  <polygon class="cls-3" points="463.49 353.1 463.49 326.4 440.37 313.06 417.25 326.4 417.25 353.1 440.37 366.45 463.49 353.1"/>
  <polygon class="cls-3" points="509.72 353.1 509.72 326.4 486.6 313.06 463.49 326.4 463.49 353.1 486.6 366.45 509.72 353.1"/>
  <g class="cls-6">
    <text class="cls-5" transform="translate(471.49 344.2)"><tspan x="0" y="0">(6,0)</tspan></text>
  </g>
  <polygon class="cls-3" points="579.08 313.06 579.08 286.36 555.96 273.01 532.84 286.36 532.84 313.06 555.96 326.4 579.08 313.06"/>
  <polygon class="cls-3" points="440.37 313.06 440.37 286.36 417.25 273.01 394.13 286.36 394.13 313.06 417.25 326.4 440.37 313.06"/>
  <polygon class="cls-3" points="486.6 313.06 486.6 286.36 463.49 273.01 440.37 286.36 440.37 313.06 463.49 326.4 486.6 313.06"/>
  <polygon class="cls-3" points="532.84 313.06 532.84 286.36 509.72 273.01 486.6 286.36 486.6 313.06 509.72 326.4 532.84 313.06"/>
  <polygon class="cls-3" points="602.2 273.01 602.2 246.32 579.08 232.97 555.96 246.32 555.96 273.01 579.08 286.36 602.2 273.01"/>
  <polygon class="cls-3" points="463.49 273.01 463.49 246.32 440.37 232.97 417.25 246.32 417.25 273.01 440.37 286.36 463.49 273.01"/>
  <polygon class="cls-3" points="509.72 273.01 509.72 246.32 486.6 232.97 463.49 246.32 463.49 273.01 486.6 286.36 509.72 273.01"/>
  <polygon class="cls-3" points="555.96 273.01 555.96 246.32 532.84 232.97 509.72 246.32 509.72 273.01 532.84 286.36 555.96 273.01"/>
  <polygon class="cls-3" points="486.6 232.97 486.6 206.27 463.49 192.93 440.37 206.27 440.37 232.97 463.49 246.32 486.6 232.97"/>
  <polygon class="cls-3" points="532.84 232.97 532.84 206.27 509.72 192.93 486.6 206.27 486.6 232.97 509.72 246.32 532.84 232.97"/>
  <polygon class="cls-3" points="579.08 232.97 579.08 206.27 555.96 192.93 532.84 206.27 532.84 232.97 555.96 246.32 579.08 232.97"/>
  <g class="cls-6">
    <text class="cls-5" transform="translate(540.84 224.07)"><tspan x="0" y="0">(6,3)</tspan></text>
  </g>
  <polygon class="cls-3" points="486.6 473.23 486.6 446.53 463.49 433.18 440.37 446.53 440.37 473.23 463.49 486.57 486.6 473.23"/>
  <polygon class="cls-3" points="532.84 473.23 532.84 446.53 509.72 433.18 486.6 446.53 486.6 473.23 509.72 486.57 532.84 473.23"/>
  <polygon class="cls-3" points="579.08 473.23 579.08 446.53 555.96 433.18 532.84 446.53 532.84 473.23 555.96 486.57 579.08 473.23"/>
  <polygon class="cls-3" points="440.37 473.23 440.37 446.53 417.25 433.18 394.13 446.53 394.13 473.23 417.25 486.57 440.37 473.23"/>
  <polygon class="cls-3" points="440.37 232.98 440.37 206.28 417.25 192.93 394.13 206.28 394.13 232.98 417.25 246.32 440.37 232.98"/>
  <polygon class="cls-3" points="509.72 433.18 509.72 406.49 486.6 393.14 463.49 406.49 463.49 433.18 486.6 446.53 509.72 433.18"/>
  <polygon class="cls-3" points="555.96 433.18 555.96 406.49 532.84 393.14 509.72 406.49 509.72 433.18 532.84 446.53 555.96 433.18"/>
  <polygon class="cls-3" points="602.2 433.18 602.2 406.49 579.08 393.14 555.96 406.49 555.96 433.18 579.08 446.53 602.2 433.18"/>
  <polygon class="cls-3" points="463.49 433.18 463.49 406.49 440.37 393.14 417.25 406.49 417.25 433.18 440.37 446.53 463.49 433.18"/>
  <polygon class="cls-3" points="532.84 393.14 532.84 366.45 509.72 353.1 486.6 366.45 486.6 393.14 509.72 406.49 532.84 393.14"/>
  <polygon class="cls-3" points="579.08 393.14 579.08 366.45 555.96 353.1 532.84 366.45 532.84 393.14 555.96 406.49 579.08 393.14"/>
  <polygon class="cls-3" points="440.37 393.14 440.37 366.45 417.25 353.1 394.13 366.45 394.13 393.14 417.25 406.49 440.37 393.14"/>
  <polygon class="cls-3" points="486.6 393.14 486.6 366.45 463.49 353.1 440.37 366.45 440.37 393.14 463.49 406.49 486.6 393.14"/>
  <polygon class="cls-3" points="186.06 192.94 186.06 166.24 162.95 152.89 139.83 166.24 139.83 192.94 162.95 206.28 186.06 192.94"/>
  <polygon class="cls-3" points="232.3 192.94 232.3 166.24 209.18 152.89 186.06 166.24 186.06 192.94 209.18 206.28 232.3 192.94"/>
  <g class="cls-6">
    <text class="cls-5" transform="translate(191.63 184.03)"><tspan x="0" y="0">(-2,4)</tspan></text>
  </g>
  <polygon class="cls-3" points="278.54 192.94 278.54 166.24 255.42 152.89 232.3 166.24 232.3 192.94 255.42 206.28 278.54 192.94"/>
  <polygon class="cls-3" points="324.78 192.94 324.78 166.24 301.66 152.89 278.54 166.24 278.54 192.94 301.66 206.28 324.78 192.94"/>
  <polygon class="cls-3" points="371.01 192.94 371.01 166.24 347.89 152.89 324.78 166.24 324.78 192.94 347.89 206.28 371.01 192.94"/>
  <polygon class="cls-3" points="371.01 112.85 371.01 86.16 347.89 72.81 324.78 86.16 324.78 112.85 347.89 126.2 371.01 112.85"/>
  <g class="cls-6">
    <text class="cls-5" transform="translate(332.78 103.95)"><tspan x="0" y="0">(0,6)</tspan></text>
  </g>
  <polygon class="cls-3" points="139.83 192.94 139.83 166.24 116.71 152.89 93.59 166.24 93.59 192.94 116.71 206.28 139.83 192.94"/>
  <polygon class="cls-3" points="417.25 192.94 417.25 166.24 394.13 152.89 371.01 166.24 371.01 192.94 394.13 206.28 417.25 192.94"/>
  <polygon class="cls-3" points="440.37 152.9 440.37 126.2 417.25 112.85 394.13 126.2 394.13 152.9 417.25 166.24 440.37 152.9"/>
  <polygon class="cls-3" points="209.18 152.89 209.18 126.2 186.06 112.85 162.95 126.2 162.95 152.89 186.06 166.24 209.18 152.89"/>
  <polygon class="cls-3" points="255.42 152.89 255.42 126.2 232.3 112.85 209.18 126.2 209.18 152.89 232.3 166.24 255.42 152.89"/>
  <polygon class="cls-3" points="301.66 152.89 301.66 126.2 278.54 112.85 255.42 126.2 255.42 152.89 278.54 166.24 301.66 152.89"/>
  <polygon class="cls-3" points="347.89 152.89 347.89 126.2 324.78 112.85 301.66 126.2 301.66 152.89 324.78 166.24 347.89 152.89"/>
  <polygon class="cls-3" points="394.13 152.89 394.13 126.2 371.01 112.85 347.89 126.2 347.89 152.89 371.01 166.24 394.13 152.89"/>
  <polygon class="cls-3" points="162.95 152.89 162.95 126.2 139.83 112.85 116.71 126.2 116.71 152.89 139.83 166.24 162.95 152.89"/>
  <polygon class="cls-3" points="232.3 112.85 232.3 86.16 209.18 72.81 186.06 86.16 186.06 112.85 209.18 126.2 232.3 112.85"/>
  <g class="cls-6">
    <text class="cls-5" transform="translate(191.63 103.95)"><tspan x="0" y="0">(-3,6)</tspan></text>
  </g>
  <polygon class="cls-3" points="278.54 112.85 278.54 86.16 255.42 72.81 232.3 86.16 232.3 112.85 255.42 126.2 278.54 112.85"/>
  <polygon class="cls-3" points="324.78 112.85 324.78 86.16 301.66 72.81 278.54 86.16 278.54 112.85 301.66 126.2 324.78 112.85"/>
  <polygon class="cls-3" points="417.25 112.85 417.25 86.16 394.13 72.81 371.01 86.16 371.01 112.85 394.13 126.2 417.25 112.85"/>
  <polygon class="cls-3" points="139.83 112.85 139.83 86.16 116.71 72.81 93.59 86.16 93.59 112.85 116.71 126.2 139.83 112.85"/>
  <polygon class="cls-3" points="186.06 112.85 186.06 86.16 162.95 72.81 139.83 86.16 139.83 112.85 162.95 126.2 186.06 112.85"/>
  <polygon class="cls-3" points="509.72 192.93 509.72 166.23 486.61 152.88 463.49 166.23 463.49 192.93 486.61 206.27 509.72 192.93"/>
  <g class="cls-6">
    <text class="cls-5" transform="translate(471.49 184.02)"><tspan x="0" y="0">(4,4)</tspan></text>
  </g>
  <polygon class="cls-3" points="555.96 192.93 555.96 166.23 532.84 152.88 509.72 166.23 509.72 192.93 532.84 206.27 555.96 192.93"/>
  <polygon class="cls-3" points="602.2 192.93 602.2 166.23 579.08 152.88 555.96 166.23 555.96 192.93 579.08 206.27 602.2 192.93"/>
  <polygon class="cls-3" points="463.49 192.93 463.49 166.23 440.37 152.88 417.25 166.23 417.25 192.93 440.37 206.27 463.49 192.93"/>
  <polygon class="cls-3" points="532.84 152.88 532.84 126.19 509.72 112.84 486.61 126.19 486.61 152.88 509.72 166.23 532.84 152.88"/>
  <polygon class="cls-3" points="579.08 152.88 579.08 126.19 555.96 112.84 532.84 126.19 532.84 152.88 555.96 166.23 579.08 152.88"/>
  <polygon class="cls-3" points="486.61 152.88 486.61 126.19 463.49 112.84 440.37 126.19 440.37 152.88 463.49 166.23 486.61 152.88"/>
  <polygon class="cls-3" points="555.96 112.84 555.96 86.15 532.84 72.8 509.72 86.15 509.72 112.84 532.84 126.19 555.96 112.84"/>
  <g class="cls-6">
    <text class="cls-5" transform="translate(402.13 224.07)"><tspan x="0" y="0">(3,3)</tspan></text>
  </g>
  <polygon class="cls-3" points="602.2 112.84 602.2 86.15 579.08 72.8 555.96 86.15 555.96 112.84 579.08 126.19 602.2 112.84"/>
  <polygon class="cls-3" points="463.49 112.84 463.49 86.15 440.37 72.8 417.25 86.15 417.25 112.84 440.37 126.19 463.49 112.84"/>
  <polygon class="cls-3" points="509.72 112.84 509.72 86.15 486.61 72.8 463.49 86.15 463.49 112.84 486.61 126.19 509.72 112.84"/>
  <g class="cls-6">
    <text class="cls-5" transform="translate(471.49 103.94)"><tspan x="0" y="0">(3,6)</tspan></text>
  </g>
  <g class="cls-6">
    <text class="cls-4" transform="translate(611.95 379.8)"><tspan x="0" y="0">X</tspan></text>
  </g>
  <text class="cls-4" transform="translate(398.37 45.53)"><tspan x="0" y="0">Y</tspan></text>
  <g>
    <polygon class="cls-1" points="180.16 230.16 238.68 230.16 267.94 179.29 238.68 128.42 180.16 128.42 150.9 179.29 180.16 230.16"/>
    <polygon class="cls-1" points="457.09 230.16 515.62 230.16 544.88 179.29 515.62 128.42 457.09 128.42 427.83 179.29 457.09 230.16"/>
    <polyline class="cls-1" points="41.69 208.66 100.22 208.66 150.9 179.29 180.16 128.42 180.16 69.68 238.68 69.68 238.68 128.42 267.94 179.29 318.63 208.66 377.15 208.66 427.83 179.29 457.09 128.42 457.09 69.68 515.62 69.68 515.62 128.42"/>
    <polygon class="cls-1" points="318.63 310.4 377.15 310.4 406.41 259.53 377.15 208.66 318.63 208.66 289.37 259.53 318.63 310.4"/>
    <polygon class="cls-1" points="41.69 310.4 100.22 310.4 129.48 259.53 100.22 208.66 41.69 208.66 12.43 259.53 41.69 310.4"/>
    <polygon class="cls-1" points="41.69 470.87 100.22 470.87 129.48 420 100.22 369.14 41.69 369.14 12.43 420 41.69 470.87"/>
    <polygon class="cls-1" points="318.63 470.87 377.15 470.87 406.41 420 377.15 369.14 318.63 369.14 289.37 420 318.63 470.87"/>
    <polygon class="cls-1" points="318.63 369.14 318.63 310.4 289.37 259.53 238.68 230.16 180.16 230.16 129.48 259.53 100.22 310.4 100.22 369.14 129.48 420 180.16 449.37 238.68 449.37 289.37 420 318.63 369.14"/>
    <polygon class="cls-1" points="595.56 369.14 595.56 310.4 566.3 259.53 515.62 230.16 457.09 230.16 406.41 259.53 377.15 310.4 377.15 369.14 406.41 420 457.09 449.37 515.62 449.37 566.3 420 595.56 369.14"/>
  </g>
</svg>