<?xml version="1.0" encoding="UTF-8"?>
<svg xmlns="http://www.w3.org/2000/svg" version="1.1" viewBox="0 0 592.08 543.73">
  <defs>
    <style>
      .cls-1 {
        stroke: #7f1f17;
        stroke-width: 7.41px;
      }

      .cls-1, .cls-2 {
        stroke-miterlimit: 10;
      }

      .cls-1, .cls-3 {
        fill: none;
      }

      .cls-2 {
        fill: #fff;
        opacity: .5;
        stroke: #231f20;
        stroke-width: .75px;
      }

      .cls-2, .cls-4, .cls-5, .cls-6 {
        isolation: isolate;
      }

      .cls-3 {
        stroke: #27aae1;
        stroke-linejoin: round;
        stroke-width: 5.2px;
      }

      .cls-4 {
        font-size: 26.68px;
      }

      .cls-4, .cls-5 {
        fill: #010101;
        font-family: MyriadPro-Bold, 'Myriad Pro';
        font-weight: 700;
      }

      .cls-7 {
        fill: #7f1f17;
        stroke-width: 0px;
      }

      .cls-5 {
        font-size: 15.13px;
      }
    </style>
  </defs>
  <g id="Layer_1" data-name="Layer 1">
    <g>
      <polyline class="cls-1" points="374.94 29.57 190.5 349 548.6 349"/>
      <path class="cls-7" d="M372.27,34.18l6,10.97.39-.2,2.72-18.54c1.88-5.92,3.76-11.84,5.63-17.77-4.19,4.59-8.38,9.17-12.57,13.76l-14.7,11.62-.02.41,12.55-.26h0Z"/>
      <path class="cls-7" d="M543.28,349l-6.5-10.68.36-.24,17.42,6.92c6.07,1.33,12.14,2.67,18.2,4-6.07,1.33-12.13,2.67-18.2,4.01l-17.42,6.92-.36-.18,6.5-10.74h0Z"/>
    </g>
    <polygon class="cls-2" points="213.62 362.35 213.62 349 213.62 335.65 202.06 328.98 190.5 322.31 178.94 328.98 167.38 335.65 167.38 349 167.38 362.35 178.94 369.03 190.5 375.7 202.06 369.03 213.62 362.35"/>
    <polygon class="cls-2" points="259.86 362.35 259.86 349 259.86 335.65 248.3 328.98 236.74 322.31 225.18 328.98 213.62 335.65 213.62 349 213.62 362.35 225.18 369.03 236.74 375.7 248.3 369.03 259.86 362.35"/>
    <polygon class="cls-2" points="306.09 362.35 306.09 349 306.09 335.65 294.53 328.98 282.98 322.31 271.42 328.98 259.86 335.65 259.86 349 259.86 362.35 271.42 369.03 282.98 375.7 294.53 369.03 306.09 362.35"/>
    <polygon class="cls-2" points="352.33 362.35 352.33 349 352.33 335.65 340.77 328.98 329.21 322.31 317.65 328.98 306.09 335.65 306.09 349 306.09 362.35 317.65 369.03 329.21 375.7 340.77 369.03 352.33 362.35"/>
    <polygon class="cls-2" points="121.15 362.35 121.15 349 121.15 335.65 109.59 328.98 98.03 322.31 86.47 328.98 74.91 335.65 74.91 349 74.91 362.35 86.47 369.03 98.03 375.7 109.59 369.03 121.15 362.35"/>
    <polygon class="cls-2" points="167.38 362.35 167.38 349 167.38 335.65 155.82 328.98 144.26 322.31 132.7 328.98 121.15 335.65 121.15 349 121.15 362.35 132.7 369.03 144.26 375.7 155.82 369.03 167.38 362.35"/>
    <polygon class="cls-2" points="236.74 322.31 236.74 308.96 236.74 295.61 225.18 288.94 213.62 282.26 202.06 288.94 190.5 295.61 190.5 308.96 190.5 322.31 202.06 328.98 213.62 335.65 225.18 328.98 236.74 322.31"/>
    <polygon class="cls-2" points="282.98 322.31 282.98 308.96 282.98 295.61 271.42 288.94 259.86 282.26 248.3 288.94 236.74 295.61 236.74 308.96 236.74 322.31 248.3 328.98 259.86 335.65 271.42 328.98 282.98 322.31"/>
    <polygon class="cls-2" points="329.21 322.31 329.21 308.96 329.21 295.61 317.65 288.94 306.09 282.26 294.53 288.94 282.98 295.61 282.98 308.96 282.98 322.31 294.53 328.98 306.09 335.65 317.65 328.98 329.21 322.31"/>
    <g class="cls-6">
      <text class="cls-5" transform="translate(290.98 314.24)"><tspan x="0" y="0">(2,1)</tspan></text>
    </g>
    <polygon class="cls-2" points="421.7 322.31 421.7 308.96 421.7 295.61 410.14 288.94 398.58 282.26 387.02 288.94 375.47 295.61 375.47 308.96 375.47 322.31 387.02 328.98 398.58 335.65 410.14 328.98 421.7 322.31"/>
    <g class="cls-6">
      <text class="cls-5" transform="translate(383.47 314.24)"><tspan x="0" y="0">(4,1)</tspan></text>
    </g>
    <polygon class="cls-2" points="421.68 402.4 421.68 389.05 421.68 375.7 410.12 369.03 398.56 362.35 387 369.03 375.45 375.7 375.45 389.05 375.45 402.4 387 409.07 398.56 415.74 410.12 409.07 421.68 402.4"/>
    <g class="cls-6">
      <text class="cls-5" transform="translate(383.45 394.33)"><tspan x="0" y="0">(5,-1)</tspan></text>
    </g>
    <polygon class="cls-2" points="444.82 282.27 444.82 268.92 444.82 255.57 433.26 248.9 421.7 242.22 410.14 248.9 398.59 255.57 398.59 268.92 398.59 282.27 410.14 288.94 421.7 295.61 433.26 288.94 444.82 282.27"/>
    <g class="cls-6">
      <text class="cls-5" transform="translate(406.59 274.2)"><tspan x="0" y="0">(4,2)</tspan></text>
    </g>
    <polygon class="cls-2" points="514.16 242.23 514.16 228.88 514.16 215.53 502.6 208.86 491.04 202.18 479.48 208.86 467.93 215.53 467.93 228.88 467.93 242.23 479.48 248.9 491.04 255.57 502.6 248.9 514.16 242.23"/>
    <g class="cls-6">
      <text class="cls-5" transform="translate(475.93 234.16)"><tspan x="0" y="0">(5,3)</tspan></text>
    </g>
    <polygon class="cls-2" points="467.94 162.14 467.94 148.79 467.94 135.44 456.38 128.77 444.82 122.09 433.26 128.77 421.71 135.44 421.71 148.79 421.71 162.14 433.26 168.81 444.82 175.48 456.38 168.81 467.94 162.14"/>
    <g class="cls-6">
      <text class="cls-5" transform="translate(429.71 154.07)"><tspan x="0" y="0">(3,5)</tspan></text>
    </g>
    <polygon class="cls-2" points="398.57 202.18 398.57 188.83 398.57 175.48 387.01 168.81 375.45 162.13 363.89 168.81 352.34 175.48 352.34 188.83 352.34 202.18 363.89 208.85 375.45 215.52 387.01 208.85 398.57 202.18"/>
    <g class="cls-6">
      <text class="cls-5" transform="translate(360.34 194.11)"><tspan x="0" y="0">(2,4)</tspan></text>
    </g>
    <polygon class="cls-2" points="352.33 202.18 352.33 188.83 352.33 175.48 340.77 168.81 329.21 162.13 317.65 168.81 306.1 175.48 306.1 188.83 306.1 202.18 317.65 208.85 329.21 215.52 340.77 208.85 352.33 202.18"/>
    <g class="cls-6">
      <text class="cls-5" transform="translate(314.1 194.11)"><tspan x="0" y="0">(1,4)</tspan></text>
    </g>
    <polygon class="cls-2" points="282.98 162.14 282.98 148.79 282.98 135.44 271.42 128.77 259.86 122.09 248.3 128.77 236.75 135.44 236.75 148.79 236.75 162.14 248.3 168.81 259.86 175.48 271.42 168.81 282.98 162.14"/>
    <g class="cls-6">
      <text class="cls-5" transform="translate(244.75 154.07)"><tspan x="0" y="0">(-1,5)</tspan></text>
    </g>
    <polygon class="cls-2" points="375.45 322.31 375.45 308.96 375.45 295.61 363.89 288.94 352.33 282.26 340.77 288.94 329.21 295.61 329.21 308.96 329.21 322.31 340.77 328.98 352.33 335.65 363.89 328.98 375.45 322.31"/>
    <polygon class="cls-2" points="98.03 322.31 98.03 308.96 98.03 295.61 86.47 288.94 74.91 282.26 63.35 288.94 51.79 295.61 51.79 308.96 51.79 322.31 63.35 328.98 74.91 335.65 86.47 328.98 98.03 322.31"/>
    <g class="cls-6">
      <text class="cls-5" transform="translate(57.36 314.24)"><tspan x="0" y="0">(-3,1)</tspan></text>
    </g>
    <polygon class="cls-2" points="144.26 322.31 144.26 308.96 144.26 295.61 132.7 288.94 121.15 282.26 109.59 288.94 98.03 295.61 98.03 308.96 98.03 322.31 109.59 328.98 121.15 335.65 132.7 328.98 144.26 322.31"/>
    <polygon class="cls-2" points="190.5 322.31 190.5 308.96 190.5 295.61 178.94 288.94 167.38 282.26 155.82 288.94 144.26 295.61 144.26 308.96 144.26 322.31 155.82 328.98 167.38 335.65 178.94 328.98 190.5 322.31"/>
    <polygon class="cls-2" points="259.86 282.26 259.86 268.92 259.86 255.57 248.3 248.9 236.74 242.22 225.18 248.9 213.62 255.57 213.62 268.92 213.62 282.26 225.18 288.94 236.74 295.61 248.3 288.94 259.86 282.26"/>
    <polygon class="cls-2" points="306.09 282.26 306.09 268.92 306.09 255.57 294.53 248.9 282.98 242.22 271.42 248.9 259.86 255.57 259.86 268.92 259.86 282.26 271.42 288.94 282.98 295.61 294.53 288.94 306.09 282.26"/>
    <g class="cls-6">
      <text class="cls-5" transform="translate(267.86 274.2)"><tspan x="0" y="0">(1,2)</tspan></text>
    </g>
    <polygon class="cls-2" points="352.33 282.26 352.33 268.92 352.33 255.57 340.77 248.9 329.21 242.22 317.65 248.9 306.09 255.57 306.09 268.92 306.09 282.26 317.65 288.94 329.21 295.61 340.77 288.94 352.33 282.26"/>
    <polygon class="cls-2" points="398.57 282.26 398.57 268.92 398.57 255.57 387.01 248.9 375.45 242.22 363.89 248.9 352.33 255.57 352.33 268.92 352.33 282.26 363.89 288.94 375.45 295.61 387.01 288.94 398.57 282.26"/>
    <polygon class="cls-2" points="121.15 282.26 121.15 268.92 121.15 255.57 109.59 248.9 98.03 242.22 86.47 248.9 74.91 255.57 74.91 268.92 74.91 282.26 86.47 288.94 98.03 295.61 109.59 288.94 121.15 282.26"/>
    <g class="cls-6">
      <text class="cls-5" transform="translate(80.48 274.2)"><tspan x="0" y="0">(-3,2)</tspan></text>
    </g>
    <polygon class="cls-2" points="167.38 282.26 167.38 268.92 167.38 255.57 155.82 248.9 144.26 242.22 132.7 248.9 121.15 255.57 121.15 268.92 121.15 282.26 132.7 288.94 144.26 295.61 155.82 288.94 167.38 282.26"/>
    <polygon class="cls-2" points="213.62 282.26 213.62 268.92 213.62 255.57 202.06 248.9 190.5 242.22 178.94 248.9 167.38 255.57 167.38 268.92 167.38 282.26 178.94 288.94 190.5 295.61 202.06 288.94 213.62 282.26"/>
    <polygon class="cls-2" points="282.98 242.22 282.98 228.87 282.98 215.52 271.42 208.85 259.86 202.18 248.3 208.85 236.74 215.52 236.74 228.87 236.74 242.22 248.3 248.9 259.86 255.57 271.42 248.9 282.98 242.22"/>
    <polygon class="cls-2" points="329.21 242.22 329.21 228.87 329.21 215.52 317.65 208.85 306.09 202.18 294.53 208.85 282.98 215.52 282.98 228.87 282.98 242.22 294.53 248.9 306.09 255.57 317.65 248.9 329.21 242.22"/>
    <polygon class="cls-2" points="375.45 242.22 375.45 228.87 375.45 215.52 363.89 208.85 352.33 202.18 340.77 208.85 329.21 215.52 329.21 228.87 329.21 242.22 340.77 248.9 352.33 255.57 363.89 248.9 375.45 242.22"/>
    <polygon class="cls-2" points="144.26 242.22 144.26 228.87 144.26 215.52 132.7 208.85 121.15 202.18 109.59 208.85 98.03 215.52 98.03 228.87 98.03 242.22 109.59 248.9 121.15 255.57 132.7 248.9 144.26 242.22"/>
    <polygon class="cls-2" points="190.5 242.22 190.5 228.87 190.5 215.52 178.94 208.85 167.38 202.18 155.82 208.85 144.26 215.52 144.26 228.87 144.26 242.22 155.82 248.9 167.38 255.57 178.94 248.9 190.5 242.22"/>
    <g class="cls-6">
      <text class="cls-5" transform="translate(149.83 234.16)"><tspan x="0" y="0">(-2,3)</tspan></text>
    </g>
    <polygon class="cls-2" points="236.74 242.22 236.74 228.87 236.74 215.52 225.18 208.85 213.62 202.18 202.06 208.85 190.5 215.52 190.5 228.87 190.5 242.22 202.06 248.9 213.62 255.57 225.18 248.9 236.74 242.22"/>
    <g class="cls-6">
      <text class="cls-5" transform="translate(196.07 234.16)"><tspan x="0" y="0">(-1,3)</tspan></text>
    </g>
    <polygon class="cls-2" points="144.26 482.48 144.26 469.13 144.26 455.78 132.7 449.11 121.15 442.43 109.59 449.11 98.03 455.78 98.03 469.13 98.03 482.48 109.59 489.15 121.15 495.82 132.7 489.15 144.26 482.48"/>
    <polygon class="cls-2" points="190.5 482.48 190.5 469.13 190.5 455.78 178.94 449.11 167.38 442.43 155.82 449.11 144.26 455.78 144.26 469.13 144.26 482.48 155.82 489.15 167.38 495.82 178.94 489.15 190.5 482.48"/>
    <g class="cls-6">
      <text class="cls-5" transform="translate(149.83 474.41)"><tspan x="0" y="0">(1,-3)</tspan></text>
    </g>
    <polygon class="cls-2" points="236.74 482.48 236.74 469.13 236.74 455.78 225.18 449.11 213.62 442.43 202.06 449.11 190.5 455.78 190.5 469.13 190.5 482.48 202.06 489.15 213.62 495.82 225.18 489.15 236.74 482.48"/>
    <g class="cls-6">
      <text class="cls-5" transform="translate(196.07 474.41)"><tspan x="0" y="0">(2,-3)</tspan></text>
    </g>
    <polygon class="cls-2" points="282.98 482.48 282.98 469.13 282.98 455.78 271.42 449.11 259.86 442.43 248.3 449.11 236.74 455.78 236.74 469.13 236.74 482.48 248.3 489.15 259.86 495.82 271.42 489.15 282.98 482.48"/>
    <polygon class="cls-2" points="329.21 482.48 329.21 469.13 329.21 455.78 317.65 449.11 306.09 442.43 294.53 449.11 282.98 455.78 282.98 469.13 282.98 482.48 294.53 489.15 306.09 495.82 317.65 489.15 329.21 482.48"/>
    <polygon class="cls-2" points="213.62 202.18 213.62 188.83 213.62 175.48 202.06 168.81 190.5 162.13 178.94 168.81 167.39 175.48 167.39 188.83 167.39 202.18 178.94 208.85 190.5 215.52 202.06 208.85 213.62 202.18"/>
    <polygon class="cls-2" points="259.86 202.18 259.86 188.83 259.86 175.48 248.3 168.81 236.74 162.13 225.18 168.81 213.63 175.48 213.63 188.83 213.63 202.18 225.18 208.85 236.74 215.52 248.3 208.85 259.86 202.18"/>
    <polygon class="cls-2" points="306.1 202.18 306.1 188.83 306.1 175.48 294.54 168.81 282.98 162.13 271.42 168.81 259.87 175.48 259.87 188.83 259.87 202.18 271.42 208.85 282.98 215.52 294.54 208.85 306.1 202.18"/>
    <polygon class="cls-2" points="444.82 202.18 444.82 188.83 444.82 175.48 433.26 168.81 421.7 162.13 410.14 168.81 398.59 175.48 398.59 188.83 398.59 202.18 410.14 208.85 421.7 215.52 433.26 208.85 444.82 202.18"/>
    <polygon class="cls-2" points="491.06 202.18 491.06 188.83 491.06 175.48 479.5 168.81 467.94 162.13 456.38 168.81 444.83 175.48 444.83 188.83 444.83 202.18 456.38 208.85 467.94 215.52 479.5 208.85 491.06 202.18"/>
    <polygon class="cls-2" points="236.74 162.14 236.74 148.79 236.74 135.44 225.18 128.77 213.62 122.09 202.06 128.77 190.51 135.44 190.51 148.79 190.51 162.14 202.06 168.81 213.62 175.48 225.18 168.81 236.74 162.14"/>
    <polygon class="cls-2" points="329.22 162.14 329.22 148.79 329.22 135.44 317.66 128.77 306.1 122.09 294.54 128.77 282.99 135.44 282.99 148.79 282.99 162.14 294.54 168.81 306.1 175.48 317.66 168.81 329.22 162.14"/>
    <polygon class="cls-2" points="375.46 162.14 375.46 148.79 375.46 135.44 363.9 128.77 352.34 122.09 340.78 128.77 329.23 135.44 329.23 148.79 329.23 162.14 340.78 168.81 352.34 175.48 363.9 168.81 375.46 162.14"/>
    <polygon class="cls-2" points="421.7 162.14 421.7 148.79 421.7 135.44 410.14 128.77 398.58 122.09 387.02 128.77 375.47 135.44 375.47 148.79 375.47 162.14 387.02 168.81 398.58 175.48 410.14 168.81 421.7 162.14"/>
    <polygon class="cls-2" points="375.46 82.06 375.46 68.71 375.46 55.36 363.9 48.69 352.34 42.01 340.78 48.69 329.23 55.36 329.23 68.71 329.23 82.06 340.78 88.73 352.34 95.4 363.9 88.73 375.46 82.06"/>
    <polygon class="cls-2" points="306.1 122.1 306.1 108.75 306.1 95.4 294.54 88.73 282.98 82.05 271.42 88.73 259.87 95.4 259.87 108.75 259.87 122.1 271.42 128.77 282.98 135.44 294.54 128.77 306.1 122.1"/>
    <polygon class="cls-2" points="352.34 122.1 352.34 108.75 352.34 95.4 340.78 88.73 329.22 82.05 317.66 88.73 306.11 95.4 306.11 108.75 306.11 122.1 317.66 128.77 329.22 135.44 340.78 128.77 352.34 122.1"/>
    <polygon class="cls-2" points="398.58 122.1 398.58 108.75 398.58 95.4 387.02 88.73 375.46 82.05 363.9 88.73 352.35 95.4 352.35 108.75 352.35 122.1 363.9 128.77 375.46 135.44 387.02 128.77 398.58 122.1"/>
    <polygon class="cls-2" points="444.82 122.1 444.82 108.75 444.82 95.4 433.26 88.73 421.7 82.05 410.14 88.73 398.59 95.4 398.59 108.75 398.59 122.1 410.14 128.77 421.7 135.44 433.26 128.77 444.82 122.1"/>
    <polygon class="cls-2" points="514.18 162.14 514.18 148.79 514.18 135.44 502.62 128.77 491.06 122.09 479.5 128.77 467.95 135.44 467.95 148.79 467.95 162.14 479.5 168.81 491.06 175.48 502.62 168.81 514.18 162.14"/>
    <polygon class="cls-2" points="421.69 242.23 421.69 228.88 421.69 215.53 410.13 208.86 398.57 202.18 387.01 208.86 375.46 215.53 375.46 228.88 375.46 242.23 387.01 248.9 398.57 255.57 410.13 248.9 421.69 242.23"/>
    <polygon class="cls-2" points="467.93 242.23 467.93 228.88 467.93 215.53 456.37 208.86 444.81 202.18 433.25 208.86 421.7 215.53 421.7 228.88 421.7 242.23 433.25 248.9 444.81 255.57 456.37 248.9 467.93 242.23"/>
    <polygon class="cls-2" points="537.29 202.18 537.29 188.83 537.29 175.48 525.73 168.81 514.17 162.13 502.61 168.81 491.06 175.48 491.06 188.83 491.06 202.18 502.61 208.85 514.17 215.52 525.73 208.85 537.29 202.18"/>
    <polygon class="cls-2" points="491.05 282.28 491.05 268.93 491.05 255.58 479.49 248.91 467.93 242.23 456.37 248.91 444.82 255.58 444.82 268.93 444.82 282.28 456.37 288.95 467.93 295.62 479.49 288.95 491.05 282.28"/>
    <polygon class="cls-2" points="537.29 282.28 537.29 268.93 537.29 255.58 525.73 248.91 514.17 242.23 502.61 248.91 491.06 255.58 491.06 268.93 491.06 282.28 502.61 288.95 514.17 295.62 525.73 288.95 537.29 282.28"/>
    <polygon class="cls-2" points="467.93 322.31 467.93 308.96 467.93 295.61 456.37 288.94 444.81 282.26 433.25 288.94 421.7 295.61 421.7 308.96 421.7 322.31 433.25 328.98 444.81 335.65 456.37 328.98 467.93 322.31"/>
    <polygon class="cls-2" points="398.57 362.36 398.57 349.01 398.57 335.66 387.01 328.99 375.45 322.31 363.89 328.99 352.34 335.66 352.34 349.01 352.34 362.36 363.89 369.03 375.45 375.7 387.01 369.03 398.57 362.36"/>
    <polygon class="cls-2" points="329.21 402.39 329.21 389.05 329.21 375.7 317.65 369.03 306.09 362.35 294.53 369.03 282.98 375.7 282.98 389.05 282.98 402.39 294.53 409.07 306.09 415.74 317.65 409.07 329.21 402.39"/>
    <g class="cls-6">
      <text class="cls-5" transform="translate(288.55 394.33)"><tspan x="0" y="0">(3,-1)</tspan></text>
    </g>
    <polygon class="cls-2" points="98.03 482.48 98.03 469.13 98.03 455.78 86.47 449.11 74.91 442.43 63.35 449.11 51.79 455.78 51.79 469.13 51.79 482.48 63.35 489.15 74.91 495.82 86.47 489.15 98.03 482.48"/>
    <polygon class="cls-2" points="74.91 442.44 74.91 429.09 74.91 415.74 63.35 409.07 51.79 402.39 40.23 409.07 28.67 415.74 28.67 429.09 28.67 442.44 40.23 449.11 51.79 455.78 63.35 449.11 74.91 442.44"/>
    <polygon class="cls-2" points="51.79 402.4 51.79 389.05 51.79 375.7 40.23 369.03 28.67 362.35 17.11 369.03 5.55 375.7 5.55 389.05 5.55 402.4 17.11 409.07 28.67 415.74 40.23 409.07 51.79 402.4"/>
    <polygon class="cls-2" points="74.91 362.36 74.91 349.01 74.91 335.66 63.35 328.99 51.79 322.31 40.23 328.99 28.67 335.66 28.67 349.01 28.67 362.36 40.23 369.03 51.79 375.7 63.35 369.03 74.91 362.36"/>
    <polygon class="cls-2" points="51.79 322.32 51.79 308.97 51.79 295.62 40.23 288.95 28.67 282.27 17.11 288.95 5.55 295.62 5.55 308.97 5.55 322.32 17.11 328.99 28.67 335.66 40.23 328.99 51.79 322.32"/>
    <polygon class="cls-2" points="74.91 282.27 74.91 268.92 74.91 255.57 63.35 248.9 51.79 242.22 40.23 248.9 28.67 255.57 28.67 268.92 28.67 282.27 40.23 288.94 51.79 295.61 63.35 288.94 74.91 282.27"/>
    <polygon class="cls-2" points="98.03 242.23 98.03 228.88 98.03 215.53 86.47 208.86 74.91 202.18 63.35 208.86 51.79 215.53 51.79 228.88 51.79 242.23 63.35 248.9 74.91 255.57 86.47 248.9 98.03 242.23"/>
    <polygon class="cls-2" points="167.38 202.18 167.38 188.83 167.38 175.48 155.82 168.81 144.26 162.13 132.7 168.81 121.14 175.48 121.14 188.83 121.14 202.18 132.7 208.85 144.26 215.52 155.82 208.85 167.38 202.18"/>
    <polygon class="cls-2" points="167.38 442.43 167.38 429.09 167.38 415.74 155.82 409.07 144.26 402.39 132.7 409.07 121.15 415.74 121.15 429.09 121.15 442.43 132.7 449.11 144.26 455.78 155.82 449.11 167.38 442.43"/>
    <polygon class="cls-2" points="213.62 442.43 213.62 429.09 213.62 415.74 202.06 409.07 190.5 402.39 178.94 409.07 167.38 415.74 167.38 429.09 167.38 442.43 178.94 449.11 190.5 455.78 202.06 449.11 213.62 442.43"/>
    <polygon class="cls-2" points="259.86 442.43 259.86 429.09 259.86 415.74 248.3 409.07 236.74 402.39 225.18 409.07 213.62 415.74 213.62 429.09 213.62 442.43 225.18 449.11 236.74 455.78 248.3 449.11 259.86 442.43"/>
    <polygon class="cls-2" points="306.09 442.43 306.09 429.09 306.09 415.74 294.53 409.07 282.98 402.39 271.42 409.07 259.86 415.74 259.86 429.09 259.86 442.43 271.42 449.11 282.98 455.78 294.53 449.11 306.09 442.43"/>
    <g class="cls-6">
      <text class="cls-5" transform="translate(265.43 434.37)"><tspan x="0" y="0">(3,-2)</tspan></text>
    </g>
    <polygon class="cls-2" points="352.33 442.43 352.33 429.09 352.33 415.74 340.77 409.07 329.21 402.39 317.65 409.07 306.09 415.74 306.09 429.09 306.09 442.43 317.65 449.11 329.21 455.78 340.77 449.11 352.33 442.43"/>
    <polygon class="cls-2" points="121.15 442.43 121.15 429.09 121.15 415.74 109.59 409.07 98.03 402.39 86.47 409.07 74.91 415.74 74.91 429.09 74.91 442.43 86.47 449.11 98.03 455.78 109.59 449.11 121.15 442.43"/>
    <g class="cls-6">
      <text class="cls-5" transform="translate(78.04 434.37)"><tspan x="0" y="0">(-1,-2)</tspan></text>
    </g>
    <polygon class="cls-2" points="190.5 402.39 190.5 389.05 190.5 375.7 178.94 369.03 167.38 362.35 155.82 369.03 144.26 375.7 144.26 389.05 144.26 402.39 155.82 409.07 167.38 415.74 178.94 409.07 190.5 402.39"/>
    <polygon class="cls-2" points="236.74 402.39 236.74 389.05 236.74 375.7 225.18 369.03 213.62 362.35 202.06 369.03 190.5 375.7 190.5 389.05 190.5 402.39 202.06 409.07 213.62 415.74 225.18 409.07 236.74 402.39"/>
    <polygon class="cls-2" points="282.98 402.39 282.98 389.05 282.98 375.7 271.42 369.03 259.86 362.35 248.3 369.03 236.74 375.7 236.74 389.05 236.74 402.39 248.3 409.07 259.86 415.74 271.42 409.07 282.98 402.39"/>
    <polygon class="cls-2" points="375.45 402.39 375.45 389.05 375.45 375.7 363.89 369.03 352.33 362.35 340.77 369.03 329.21 375.7 329.21 389.05 329.21 402.39 340.77 409.07 352.33 415.74 363.89 409.07 375.45 402.39"/>
    <polygon class="cls-2" points="444.81 362.36 444.81 349.01 444.81 335.66 433.25 328.99 421.69 322.31 410.13 328.99 398.58 335.66 398.58 349.01 398.58 362.36 410.13 369.03 421.69 375.7 433.25 369.03 444.81 362.36"/>
    <polygon class="cls-2" points="398.57 442.43 398.57 429.09 398.57 415.74 387.01 409.07 375.45 402.39 363.89 409.07 352.33 415.74 352.33 429.09 352.33 442.43 363.89 449.11 375.45 455.78 387.01 449.11 398.57 442.43"/>
    <polygon class="cls-2" points="514.16 322.32 514.16 308.97 514.16 295.62 502.6 288.95 491.04 282.27 479.48 288.95 467.93 295.62 467.93 308.97 467.93 322.32 479.48 328.99 491.04 335.66 502.6 328.99 514.16 322.32"/>
    <polygon class="cls-2" points="491.04 362.37 491.04 349.02 491.04 335.67 479.48 329 467.92 322.32 456.36 329 444.81 335.67 444.81 349.02 444.81 362.37 456.36 369.04 467.92 375.71 479.48 369.04 491.04 362.37"/>
    <polygon class="cls-2" points="444.8 442.44 444.8 429.1 444.8 415.75 433.24 409.08 421.68 402.4 410.12 409.08 398.56 415.75 398.56 429.1 398.56 442.44 410.12 449.12 421.68 455.79 433.24 449.12 444.8 442.44"/>
    <polygon class="cls-2" points="467.92 402.4 467.92 389.06 467.92 375.71 456.36 369.04 444.8 362.36 433.24 369.04 421.68 375.71 421.68 389.06 421.68 402.4 433.24 409.08 444.8 415.75 456.36 409.08 467.92 402.4"/>
    <polygon class="cls-2" points="560.4 322.32 560.4 308.97 560.4 295.62 548.84 288.95 537.28 282.27 525.72 288.95 514.17 295.62 514.17 308.97 514.17 322.32 525.72 328.99 537.28 335.66 548.84 328.99 560.4 322.32"/>
    <polygon class="cls-2" points="537.28 362.37 537.28 349.02 537.28 335.67 525.72 329 514.16 322.32 502.6 329 491.05 335.67 491.05 349.02 491.05 362.37 502.6 369.04 514.16 375.71 525.72 369.04 537.28 362.37"/>
    <polygon class="cls-2" points="98.03 402.39 98.03 389.05 98.03 375.7 86.47 369.03 74.91 362.35 63.35 369.03 51.79 375.7 51.79 389.05 51.79 402.39 63.35 409.07 74.91 415.74 86.47 409.07 98.03 402.39"/>
    <g class="cls-6">
      <text class="cls-5" transform="translate(54.92 394.33)"><tspan x="0" y="0">(-2,-1)</tspan></text>
    </g>
    <polygon class="cls-2" points="144.26 402.39 144.26 389.05 144.26 375.7 132.7 369.03 121.15 362.35 109.59 369.03 98.03 375.7 98.03 389.05 98.03 402.39 109.59 409.07 121.15 415.74 132.7 409.07 144.26 402.39"/>
    <g class="cls-6">
      <text class="cls-4" transform="translate(563.43 375.7)"><tspan x="0" y="0">X</tspan></text>
    </g>
    <g class="cls-6">
      <text class="cls-4" transform="translate(391.09 29.57)"><tspan x="0" y="0">Y</tspan></text>
    </g>
  </g>
  <g id="Layer_2" data-name="Layer 2">
    <polygon class="cls-3" points="190.5 349 352.33 349 352.33 255.57 190.5 349"/>
    <polygon class="cls-3" points="190.5 349 28.67 349 28.67 442.43 190.5 349"/>
    <polygon class="cls-3" points="190.5 349 352.33 349 352.33 442.43 190.5 349"/>
    <polygon class="cls-3" points="190.5 349 28.67 349 28.67 255.57 190.5 349"/>
    <polygon class="cls-3" points="190.5 349 271.41 208.85 190.5 162.14 190.5 349"/>
    <polygon class="cls-3" points="190.5 349 109.58 489.15 190.5 535.87 190.5 349"/>
    <polygon class="cls-3" points="190.5 349 271.41 208.85 352.33 255.57 190.5 349"/>
    <polygon class="cls-3" points="190.5 349 109.58 489.15 28.67 442.44 190.5 349"/>
    <polygon class="cls-3" points="190.5 349 109.58 208.85 28.67 255.57 190.5 349"/>
    <polygon class="cls-3" points="190.5 349 271.41 489.15 352.33 442.44 190.5 349"/>
    <polygon class="cls-3" points="190.5 349 109.58 208.85 190.5 162.14 190.5 349"/>
    <polygon class="cls-3" points="514.16 349 352.33 349 352.33 442.43 514.16 349"/>
    <polygon class="cls-3" points="514.16 349 352.33 349 352.33 255.57 514.16 349"/>
    <polygon class="cls-3" points="514.16 349 433.24 208.85 352.33 255.57 514.16 349"/>
    <polygon class="cls-3" points="514.16 349 433.24 208.85 514.16 162.14 514.16 349"/>
    <polygon class="cls-3" points="190.5 349 271.41 489.15 190.5 535.87 190.5 349"/>
    <polygon class="cls-3" points="352.33 68.71 271.41 208.86 352.32 255.57 352.33 68.71"/>
    <polygon class="cls-3" points="352.33 68.71 271.41 208.86 190.5 162.14 352.33 68.71"/>
    <polygon class="cls-3" points="352.33 68.71 433.24 208.86 514.15 162.14 352.33 68.71"/>
    <polygon class="cls-3" points="352.33 68.71 433.24 208.86 352.33 255.57 352.33 68.71"/>
  </g>
</svg>