<?xml version="1.0" encoding="UTF-8"?>
<svg id="Layer_1" data-name="Layer 1" xmlns="http://www.w3.org/2000/svg" version="1.1" viewBox="0 0 380 380">
  <defs>
    <style>
      .cls-1 {
        font-size: 15.13px;
      }

      .cls-1, .cls-2 {
        fill: #010101;
        font-family: MyriadPro-Bold, 'Myriad Pro';
        font-weight: 700;
      }

      .cls-3 {
        stroke: #7f1f17;
        stroke-width: 7.41px;
      }

      .cls-3, .cls-4 {
        fill: none;
      }

      .cls-3, .cls-5 {
        stroke-miterlimit: 10;
      }

      .cls-2 {
        font-size: 26.68px;
      }

      .cls-6 {
        fill: #7f1f17;
        stroke-width: 0px;
      }

      .cls-4 {
        stroke: #27aae1;
        stroke-linejoin: round;
        stroke-width: 5px;
      }

      .cls-5 {
        fill: #fff;
        opacity: .5;
        stroke: #231f20;
        stroke-width: .75px;
      }
    </style>
  </defs>
  <g>
    <polyline class="cls-3" points="255.16 41.39 154.42 215.87 342.52 215.87"/>
    <path class="cls-6" d="M252.49,46l6,10.97.39-.2,2.72-18.54c1.88-5.92,3.76-11.84,5.63-17.77-4.19,4.59-8.38,9.17-12.57,13.76l-14.7,11.62-.02.41,12.55-.26Z"/>
    <path class="cls-6" d="M337.2,215.87l-6.5-10.68.36-.24,17.42,6.92c6.07,1.33,12.14,2.67,18.2,4-6.07,1.33-12.13,2.67-18.2,4.01l-17.42,6.92-.36-.18,6.5-10.74Z"/>
  </g>
  <polygon class="cls-5" points="177.54 229.22 177.54 215.87 177.54 202.52 165.98 195.85 154.42 189.18 142.86 195.85 131.3 202.52 131.3 215.87 131.3 229.22 142.86 235.89 154.42 242.57 165.98 235.89 177.54 229.22"/>
  <text class="cls-1" transform="translate(139.31 221.16)"><tspan x="0" y="0">(0,0)</tspan></text>
  <polygon class="cls-5" points="223.78 229.22 223.78 215.87 223.78 202.52 212.22 195.85 200.66 189.18 189.1 195.85 177.54 202.52 177.54 215.87 177.54 229.22 189.1 235.89 200.66 242.57 212.22 235.89 223.78 229.22"/>
  <polygon class="cls-5" points="270.01 229.22 270.01 215.87 270.01 202.52 258.46 195.85 246.9 189.18 235.34 195.85 223.78 202.52 223.78 215.87 223.78 229.22 235.34 235.89 246.9 242.57 258.46 235.89 270.01 229.22"/>
  <polygon class="cls-5" points="316.25 229.22 316.25 215.87 316.25 202.52 304.69 195.85 293.13 189.18 281.57 195.85 270.01 202.52 270.01 215.87 270.01 229.22 281.57 235.89 293.13 242.57 304.69 235.89 316.25 229.22"/>
  <text class="cls-1" transform="translate(278.02 221.16)"><tspan x="0" y="0">(3,0)</tspan></text>
  <polygon class="cls-5" points="85.07 229.22 85.07 215.87 85.07 202.52 73.51 195.85 61.95 189.18 50.39 195.85 38.83 202.52 38.83 215.87 38.83 229.22 50.39 235.89 61.95 242.57 73.51 235.89 85.07 229.22"/>
  <polygon class="cls-5" points="131.3 229.22 131.3 215.87 131.3 202.52 119.74 195.85 108.18 189.18 96.62 195.85 85.07 202.52 85.07 215.87 85.07 229.22 96.62 235.89 108.18 242.57 119.74 235.89 131.3 229.22"/>
  <polygon class="cls-5" points="200.66 189.18 200.66 175.83 200.66 162.48 189.1 155.81 177.54 149.13 165.98 155.81 154.42 162.48 154.42 175.83 154.42 189.18 165.98 195.85 177.54 202.52 189.1 195.85 200.66 189.18"/>
  <polygon class="cls-5" points="246.9 189.18 246.9 175.83 246.9 162.48 235.34 155.81 223.78 149.13 212.22 155.81 200.66 162.48 200.66 175.83 200.66 189.18 212.22 195.85 223.78 202.52 235.34 195.85 246.9 189.18"/>
  <text class="cls-1" transform="translate(208.66 181.11)"><tspan x="0" y="0">(1,1)</tspan></text>
  <polygon class="cls-5" points="293.13 189.18 293.13 175.83 293.13 162.48 281.57 155.81 270.01 149.13 258.46 155.81 246.9 162.48 246.9 175.83 246.9 189.18 258.46 195.85 270.01 202.52 281.57 195.85 293.13 189.18"/>
  <polygon class="cls-5" points="339.37 189.18 339.37 175.83 339.37 162.48 327.81 155.81 316.25 149.13 304.69 155.81 293.13 162.48 293.13 175.83 293.13 189.18 304.69 195.85 316.25 202.52 327.81 195.85 339.37 189.18"/>
  <polygon class="cls-5" points="61.95 189.18 61.95 175.83 61.95 162.48 50.39 155.81 38.83 149.13 27.27 155.81 15.71 162.48 15.71 175.83 15.71 189.18 27.27 195.85 38.83 202.52 50.39 195.85 61.95 189.18"/>
  <polygon class="cls-5" points="108.18 189.18 108.18 175.83 108.18 162.48 96.62 155.81 85.07 149.13 73.51 155.81 61.95 162.48 61.95 175.83 61.95 189.18 73.51 195.85 85.07 202.52 96.62 195.85 108.18 189.18"/>
  <text class="cls-1" transform="translate(67.52 181.11)"><tspan x="0" y="0">(-2,1)</tspan></text>
  <polygon class="cls-5" points="154.42 189.18 154.42 175.83 154.42 162.48 142.86 155.81 131.3 149.13 119.74 155.81 108.18 162.48 108.18 175.83 108.18 189.18 119.74 195.85 131.3 202.52 142.86 195.85 154.42 189.18"/>
  <polygon class="cls-5" points="223.78 149.13 223.78 135.78 223.78 122.44 212.22 115.76 200.66 109.09 189.1 115.76 177.54 122.44 177.54 135.78 177.54 149.13 189.1 155.81 200.66 162.48 212.22 155.81 223.78 149.13"/>
  <polygon class="cls-5" points="270.01 149.13 270.01 135.78 270.01 122.44 258.46 115.76 246.9 109.09 235.34 115.76 223.78 122.44 223.78 135.78 223.78 149.13 235.34 155.81 246.9 162.48 258.46 155.81 270.01 149.13"/>
  <polygon class="cls-5" points="316.25 149.13 316.25 135.78 316.25 122.44 304.69 115.76 293.13 109.09 281.57 115.76 270.01 122.44 270.01 135.78 270.01 149.13 281.57 155.81 293.13 162.48 304.69 155.81 316.25 149.13"/>
  <polygon class="cls-5" points="362.49 149.13 362.49 135.78 362.49 122.44 350.93 115.76 339.37 109.09 327.81 115.76 316.25 122.44 316.25 135.78 316.25 149.13 327.81 155.81 339.37 162.48 350.93 155.81 362.49 149.13"/>
  <polygon class="cls-5" points="85.07 149.13 85.07 135.78 85.07 122.44 73.51 115.76 61.95 109.09 50.39 115.76 38.83 122.44 38.83 135.78 38.83 149.13 50.39 155.81 61.95 162.48 73.51 155.81 85.07 149.13"/>
  <polygon class="cls-5" points="131.3 149.13 131.3 135.78 131.3 122.44 119.74 115.76 108.18 109.09 96.62 115.76 85.07 122.44 85.07 135.78 85.07 149.13 96.62 155.81 108.18 162.48 119.74 155.81 131.3 149.13"/>
  <polygon class="cls-5" points="177.54 149.13 177.54 135.78 177.54 122.44 165.98 115.76 154.42 109.09 142.86 115.76 131.3 122.44 131.3 135.78 131.3 149.13 142.86 155.81 154.42 162.48 165.98 155.81 177.54 149.13"/>
  <polygon class="cls-5" points="246.9 109.09 246.9 95.74 246.9 82.39 235.34 75.72 223.78 69.05 212.22 75.72 200.66 82.39 200.66 95.74 200.66 109.09 212.22 115.76 223.78 122.44 235.34 115.76 246.9 109.09"/>
  <text class="cls-1" transform="translate(208.66 101.03)"><tspan x="0" y="0">(0,3)</tspan></text>
  <polygon class="cls-5" points="293.13 109.09 293.13 95.74 293.13 82.39 281.57 75.72 270.01 69.05 258.46 75.72 246.9 82.39 246.9 95.74 246.9 109.09 258.46 115.76 270.01 122.44 281.57 115.76 293.13 109.09"/>
  <polygon class="cls-5" points="339.37 109.09 339.37 95.74 339.37 82.39 327.81 75.72 316.25 69.05 304.69 75.72 293.13 82.39 293.13 95.74 293.13 109.09 304.69 115.76 316.25 122.44 327.81 115.76 339.37 109.09"/>
  <polygon class="cls-5" points="108.18 109.09 108.18 95.74 108.18 82.39 96.62 75.72 85.07 69.05 73.51 75.72 61.95 82.39 61.95 95.74 61.95 109.09 73.51 115.76 85.07 122.44 96.62 115.76 108.18 109.09"/>
  <text class="cls-1" transform="translate(67.52 101.03)"><tspan x="0" y="0">(-3,3)</tspan></text>
  <polygon class="cls-5" points="177.54 69.05 177.54 55.7 177.54 42.35 165.98 35.68 154.42 29 142.86 35.68 131.3 42.35 131.3 55.7 131.3 69.05 142.86 75.72 154.42 82.39 165.98 75.72 177.54 69.05"/>
  <text class="cls-1" transform="translate(136.87 60.99)"><tspan x="0" y="0">(-2,4)</tspan></text>
  <polygon class="cls-5" points="316.25 69.05 316.25 55.7 316.25 42.35 304.69 35.68 293.13 29 281.57 35.68 270.01 42.35 270.01 55.7 270.01 69.05 281.57 75.72 293.13 82.39 304.69 75.72 316.25 69.05"/>
  <text class="cls-1" transform="translate(278.02 60.99)"><tspan x="0" y="0">(1,4)</tspan></text>
  <polygon class="cls-5" points="154.42 109.09 154.42 95.74 154.42 82.39 142.86 75.72 131.3 69.05 119.74 75.72 108.18 82.39 108.18 95.74 108.18 109.09 119.74 115.76 131.3 122.44 142.86 115.76 154.42 109.09"/>
  <polygon class="cls-5" points="200.66 109.09 200.66 95.74 200.66 82.39 189.1 75.72 177.54 69.05 165.98 75.72 154.42 82.39 154.42 95.74 154.42 109.09 165.98 115.76 177.54 122.44 189.1 115.76 200.66 109.09"/>
  <polygon class="cls-5" points="108.18 349.35 108.18 336 108.18 322.65 96.62 315.98 85.07 309.3 73.51 315.98 61.95 322.65 61.95 336 61.95 349.35 73.51 356.02 85.07 362.69 96.62 356.02 108.18 349.35"/>
  <text class="cls-1" transform="translate(67.52 341.28)"><tspan x="0" y="0">(0,-3)</tspan></text>
  <polygon class="cls-5" points="154.42 349.35 154.42 336 154.42 322.65 142.86 315.98 131.3 309.3 119.74 315.98 108.18 322.65 108.18 336 108.18 349.35 119.74 356.02 131.3 362.69 142.86 356.02 154.42 349.35"/>
  <polygon class="cls-5" points="200.66 349.35 200.66 336 200.66 322.65 189.1 315.98 177.54 309.3 165.98 315.98 154.42 322.65 154.42 336 154.42 349.35 165.98 356.02 177.54 362.69 189.1 356.02 200.66 349.35"/>
  <polygon class="cls-5" points="246.9 349.35 246.9 336 246.9 322.65 235.34 315.98 223.78 309.3 212.22 315.98 200.66 322.65 200.66 336 200.66 349.35 212.22 356.02 223.78 362.69 235.34 356.02 246.9 349.35"/>
  <text class="cls-1" transform="translate(206.23 341.28)"><tspan x="0" y="0">(3,-3)</tspan></text>
  <polygon class="cls-5" points="293.13 349.35 293.13 336 293.13 322.65 281.57 315.98 270.01 309.3 258.46 315.98 246.9 322.65 246.9 336 246.9 349.35 258.46 356.02 270.01 362.69 281.57 356.02 293.13 349.35"/>
  <polygon class="cls-5" points="293.13 269.26 293.13 255.91 293.13 242.57 281.57 235.89 270.01 229.22 258.46 235.89 246.9 242.57 246.9 255.91 246.9 269.26 258.46 275.93 270.01 282.61 281.57 275.93 293.13 269.26"/>
  <polygon class="cls-5" points="61.95 349.35 61.95 336 61.95 322.65 50.39 315.98 38.83 309.3 27.27 315.98 15.71 322.65 15.71 336 15.71 349.35 27.27 356.02 38.83 362.69 50.39 356.02 61.95 349.35"/>
  <polygon class="cls-5" points="131.3 309.3 131.3 295.96 131.3 282.61 119.74 275.93 108.18 269.26 96.62 275.93 85.07 282.61 85.07 295.96 85.07 309.3 96.62 315.98 108.18 322.65 119.74 315.98 131.3 309.3"/>
  <polygon class="cls-5" points="177.54 309.3 177.54 295.96 177.54 282.61 165.98 275.93 154.42 269.26 142.86 275.93 131.3 282.61 131.3 295.96 131.3 309.3 142.86 315.98 154.42 322.65 165.98 315.98 177.54 309.3"/>
  <text class="cls-1" transform="translate(136.87 301.24)"><tspan x="0" y="0">(1,-2)</tspan></text>
  <polygon class="cls-5" points="223.78 309.3 223.78 295.96 223.78 282.61 212.22 275.93 200.66 269.26 189.1 275.93 177.54 282.61 177.54 295.96 177.54 309.3 189.1 315.98 200.66 322.65 212.22 315.98 223.78 309.3"/>
  <polygon class="cls-5" points="270.01 309.3 270.01 295.96 270.01 282.61 258.46 275.93 246.9 269.26 235.34 275.93 223.78 282.61 223.78 295.96 223.78 309.3 235.34 315.98 246.9 322.65 258.46 315.98 270.01 309.3"/>
  <polygon class="cls-5" points="316.25 309.3 316.25 295.96 316.25 282.61 304.69 275.93 293.13 269.26 281.57 275.93 270.01 282.61 270.01 295.96 270.01 309.3 281.57 315.98 293.13 322.65 304.69 315.98 316.25 309.3"/>
  <text class="cls-1" transform="translate(275.58 301.24)"><tspan x="0" y="0">(4,-2)</tspan></text>
  <polygon class="cls-5" points="85.07 309.3 85.07 295.96 85.07 282.61 73.51 275.93 61.95 269.26 50.39 275.93 38.83 282.61 38.83 295.96 38.83 309.3 50.39 315.98 61.95 322.65 73.51 315.98 85.07 309.3"/>
  <polygon class="cls-5" points="154.42 269.26 154.42 255.91 154.42 242.57 142.86 235.89 131.3 229.22 119.74 235.89 108.18 242.57 108.18 255.91 108.18 269.26 119.74 275.93 131.3 282.61 142.86 275.93 154.42 269.26"/>
  <polygon class="cls-5" points="246.9 269.26 246.9 255.91 246.9 242.57 235.34 235.89 223.78 229.22 212.22 235.89 200.66 242.57 200.66 255.91 200.66 269.26 212.22 275.93 223.78 282.61 235.34 275.93 246.9 269.26"/>
  <polygon class="cls-5" points="339.37 269.26 339.37 255.91 339.37 242.57 327.81 235.89 316.25 229.22 304.69 235.89 293.13 242.57 293.13 255.91 293.13 269.26 304.69 275.93 316.25 282.61 327.81 275.93 339.37 269.26"/>
  <polygon class="cls-5" points="61.95 269.26 61.95 255.91 61.95 242.57 50.39 235.89 38.83 229.22 27.27 235.89 15.71 242.57 15.71 255.91 15.71 269.26 27.27 275.93 38.83 282.61 50.39 275.93 61.95 269.26"/>
  <polygon class="cls-5" points="108.18 269.26 108.18 255.91 108.18 242.57 96.62 235.89 85.07 229.22 73.51 235.89 61.95 242.57 61.95 255.91 61.95 269.26 73.51 275.93 85.07 282.61 96.62 275.93 108.18 269.26"/>
  <text class="cls-2" transform="translate(345.37 255.91)"><tspan x="0" y="0">X</tspan></text>
  <text class="cls-2" transform="translate(238.85 32)"><tspan x="0" y="0">Y</tspan></text>
  <polygon class="cls-4" points="85.07 255.91 223.78 255.91 154.42 135.78 85.07 255.91"/>
  <polygon class="cls-4" points="15.71 376.04 154.42 376.04 85.07 255.91 15.71 376.04"/>
  <polygon class="cls-4" points="15.71 138.03 154.42 138.03 85.07 17.91 15.71 138.03"/>
  <polygon class="cls-4" points="223.78 255.91 85.07 255.91 154.42 376.04 223.78 255.91"/>
  <polygon class="cls-4" points="154.42 138.03 15.71 138.03 85.07 258.16 154.42 138.03"/>
  <polygon class="cls-4" points="223.78 17.91 85.07 17.91 154.42 138.03 223.78 17.91"/>
  <polygon class="cls-4" points="154.42 376.04 293.13 376.04 223.78 255.91 154.42 376.04"/>
  <polygon class="cls-4" points="154.42 138.03 293.13 138.03 223.78 17.91 154.42 138.03"/>
  <polygon class="cls-4" points="293.13 138.03 154.42 138.03 223.78 258.16 293.13 138.03"/>
  <polygon class="cls-4" points="362.49 17.91 223.78 17.91 293.13 138.03 362.49 17.91"/>
  <polygon class="cls-4" points="362.49 255.91 223.78 255.91 293.13 376.04 362.49 255.91"/>
  <polygon class="cls-4" points="223.78 255.91 362.49 255.91 293.13 135.78 223.78 255.91"/>
</svg>