<?xml version="1.0" encoding="UTF-8"?>
<svg id="Layer_1" data-name="Layer 1" xmlns="http://www.w3.org/2000/svg" version="1.1" viewBox="0 0 400 400">
  <defs>
    <style>
      .cls-1 {
        stroke: #7f1f17;
        stroke-width: 7.41px;
      }

      .cls-1, .cls-2 {
        stroke-miterlimit: 10;
      }

      .cls-1, .cls-3 {
        fill: none;
      }

      .cls-2 {
        fill: #fff;
        opacity: .5;
        stroke: #231f20;
        stroke-width: .75px;
      }

      .cls-2, .cls-4, .cls-5, .cls-6 {
        isolation: isolate;
      }

      .cls-3 {
        stroke: #27aae1;
        stroke-linejoin: round;
        stroke-width: 5.2px;
      }

      .cls-4 {
        font-size: 26.68px;
      }

      .cls-4, .cls-5 {
        fill: #010101;
        font-family: MyriadPro-Bold, 'Myriad Pro';
        font-weight: 700;
      }

      .cls-7 {
        fill: #7f1f17;
        stroke-width: 0px;
      }

      .cls-5 {
        font-size: 15.13px;
      }
    </style>
  </defs>
  <g>
    <polyline class="cls-1" points="258.16 51.39 157.42 225.87 345.52 225.87"/>
    <path class="cls-7" d="M255.49,56l6,10.97.39-.2,2.72-18.54c1.88-5.92,3.76-11.84,5.63-17.77-4.19,4.59-8.38,9.17-12.57,13.76l-14.7,11.62-.02.41,12.55-.26h0Z"/>
    <path class="cls-7" d="M340.2,225.87l-6.5-10.68.36-.24,17.42,6.92c6.07,1.33,12.14,2.67,18.2,4-6.07,1.33-12.13,2.67-18.2,4.01l-17.42,6.92-.36-.18,6.5-10.74h0Z"/>
  </g>
  <polygon class="cls-2" points="180.54 239.22 180.54 212.52 157.42 199.18 134.3 212.52 134.3 239.22 157.42 252.57 180.54 239.22"/>
  <polygon class="cls-2" points="226.78 239.22 226.78 212.52 203.66 199.18 180.54 212.52 180.54 239.22 203.66 252.57 226.78 239.22"/>
  <g class="cls-6">
    <text class="cls-5" transform="translate(188.55 231.16)"><tspan x="0" y="0">(1,0)</tspan></text>
  </g>
  <polygon class="cls-2" points="273.01 239.22 273.01 212.52 249.9 199.18 226.78 212.52 226.78 239.22 249.9 252.57 273.01 239.22"/>
  <polygon class="cls-2" points="319.25 239.22 319.25 212.52 296.13 199.18 273.01 212.52 273.01 239.22 296.13 252.57 319.25 239.22"/>
  <polygon class="cls-2" points="88.07 239.22 88.07 212.52 64.95 199.18 41.83 212.52 41.83 239.22 64.95 252.57 88.07 239.22"/>
  <polygon class="cls-2" points="134.3 239.22 134.3 225.87 134.3 212.52 122.74 205.85 111.18 199.18 99.62 205.85 88.07 212.52 88.07 225.87 88.07 239.22 99.62 245.9 111.18 252.57 122.74 245.9 134.3 239.22"/>
  <g class="cls-6">
    <text class="cls-5" transform="translate(93.64 231.16)"><tspan x="0" y="0">(-1,0)</tspan></text>
  </g>
  <polygon class="cls-2" points="203.66 199.18 203.66 172.48 180.54 159.13 157.42 172.48 157.42 199.18 180.54 212.52 203.66 199.18"/>
  <g class="cls-6">
    <text class="cls-5" transform="translate(165.43 191.11)"><tspan x="0" y="0">(0,1)</tspan></text>
  </g>
  <polygon class="cls-2" points="249.9 199.18 249.9 172.48 226.78 159.13 203.66 172.48 203.66 199.18 226.78 212.52 249.9 199.18"/>
  <polygon class="cls-2" points="296.13 199.18 296.13 172.48 273.01 159.13 249.9 172.48 249.9 199.18 273.01 212.52 296.13 199.18"/>
  <g class="cls-6">
    <text class="cls-5" transform="translate(257.9 191.11)"><tspan x="0" y="0">(2,1)</tspan></text>
  </g>
  <polygon class="cls-2" points="342.37 199.18 342.37 172.48 319.25 159.13 296.13 172.48 296.13 199.18 319.25 212.52 342.37 199.18"/>
  <g class="cls-6">
    <text class="cls-5" transform="translate(304.14 191.11)"><tspan x="0" y="0">(3,1)</tspan></text>
  </g>
  <polygon class="cls-2" points="64.95 199.18 64.95 172.48 41.83 159.13 18.71 172.48 18.71 199.18 41.83 212.52 64.95 199.18"/>
  <g class="cls-6">
    <text class="cls-5" transform="translate(24.28 191.11)"><tspan x="0" y="0">(-3,1)</tspan></text>
  </g>
  <polygon class="cls-2" points="111.18 199.18 111.18 172.48 88.07 159.13 64.95 172.48 64.95 199.18 88.07 212.52 111.18 199.18"/>
  <polygon class="cls-2" points="157.42 199.18 157.42 172.48 134.3 159.13 111.18 172.48 111.18 199.18 134.3 212.52 157.42 199.18"/>
  <g class="cls-6">
    <text class="cls-5" transform="translate(116.75 191.11)"><tspan x="0" y="0">(-1,1)</tspan></text>
  </g>
  <polygon class="cls-2" points="226.78 159.13 226.78 132.44 203.66 119.09 180.54 132.44 180.54 159.13 203.66 172.48 226.78 159.13"/>
  <polygon class="cls-2" points="273.01 159.13 273.01 132.44 249.9 119.09 226.78 132.44 226.78 159.13 249.9 172.48 273.01 159.13"/>
  <g class="cls-6">
    <text class="cls-5" transform="translate(234.78 151.07)"><tspan x="0" y="0">(1,2)</tspan></text>
  </g>
  <polygon class="cls-2" points="319.25 159.13 319.25 132.44 296.13 119.09 273.01 132.44 273.01 159.13 296.13 172.48 319.25 159.13"/>
  <polygon class="cls-2" points="365.49 159.13 365.49 132.44 342.37 119.09 319.25 132.44 319.25 159.13 342.37 172.48 365.49 159.13"/>
  <g class="cls-6">
    <text class="cls-5" transform="translate(327.26 151.07)"><tspan x="0" y="0">(3,2)</tspan></text>
  </g>
  <polygon class="cls-2" points="88.07 159.13 88.07 132.44 64.95 119.09 41.83 132.44 41.83 159.13 64.95 172.48 88.07 159.13"/>
  <g class="cls-6">
    <text class="cls-5" transform="translate(47.4 151.07)"><tspan x="0" y="0">(-3,2)</tspan></text>
  </g>
  <polygon class="cls-2" points="134.3 159.13 134.3 132.44 111.18 119.09 88.07 132.44 88.07 159.13 111.18 172.48 134.3 159.13"/>
  <polygon class="cls-2" points="180.54 159.13 180.54 132.44 157.42 119.09 134.3 132.44 134.3 159.13 157.42 172.48 180.54 159.13"/>
  <polygon class="cls-2" points="249.9 119.09 249.9 92.39 226.78 79.05 203.66 92.39 203.66 119.09 226.78 132.44 249.9 119.09"/>
  <polygon class="cls-2" points="296.13 119.09 296.13 92.39 273.01 79.05 249.9 92.39 249.9 119.09 273.01 132.44 296.13 119.09"/>
  <g class="cls-6">
    <text class="cls-5" transform="translate(257.9 111.03)"><tspan x="0" y="0">(1,3)</tspan></text>
  </g>
  <polygon class="cls-2" points="342.37 119.09 342.37 92.39 319.25 79.05 296.13 92.39 296.13 119.09 319.25 132.44 342.37 119.09"/>
  <g class="cls-6">
    <text class="cls-5" transform="translate(304.14 111.03)"><tspan x="0" y="0">(2,3)</tspan></text>
  </g>
  <polygon class="cls-2" points="111.18 119.09 111.18 92.39 88.07 79.05 64.95 92.39 64.95 119.09 88.07 132.44 111.18 119.09"/>
  <polygon class="cls-2" points="157.42 119.09 157.42 92.39 134.3 79.05 111.18 92.39 111.18 119.09 134.3 132.44 157.42 119.09"/>
  <g class="cls-6">
    <text class="cls-5" transform="translate(116.75 111.03)"><tspan x="0" y="0">(-2,3)</tspan></text>
  </g>
  <polygon class="cls-2" points="203.66 119.09 203.66 92.39 180.54 79.05 157.42 92.39 157.42 119.09 180.54 132.44 203.66 119.09"/>
  <g class="cls-6">
    <text class="cls-5" transform="translate(162.99 111.03)"><tspan x="0" y="0">(-1,3)</tspan></text>
  </g>
  <polygon class="cls-2" points="111.18 359.35 111.18 332.65 88.07 319.3 64.95 332.65 64.95 359.35 88.07 372.69 111.18 359.35"/>
  <polygon class="cls-2" points="157.42 359.35 157.42 332.65 134.3 319.3 111.18 332.65 111.18 359.35 134.3 372.69 157.42 359.35"/>
  <g class="cls-6">
    <text class="cls-5" transform="translate(116.75 351.28)"><tspan x="0" y="0">(1,-3)</tspan></text>
  </g>
  <polygon class="cls-2" points="203.66 359.35 203.66 332.65 180.54 319.3 157.42 332.65 157.42 359.35 180.54 372.69 203.66 359.35"/>
  <g class="cls-6">
    <text class="cls-5" transform="translate(162.99 351.28)"><tspan x="0" y="0">(2,-3)</tspan></text>
  </g>
  <polygon class="cls-2" points="249.9 359.35 249.9 332.65 226.78 319.3 203.66 332.65 203.66 359.35 226.78 372.69 249.9 359.35"/>
  <polygon class="cls-2" points="296.13 359.35 296.13 332.65 273.01 319.3 249.9 332.65 249.9 359.35 273.01 372.69 296.13 359.35"/>
  <g class="cls-6">
    <text class="cls-5" transform="translate(255.47 351.28)"><tspan x="0" y="0">(4,-3)</tspan></text>
  </g>
  <polygon class="cls-2" points="296.13 279.26 296.13 252.57 273.01 239.22 249.9 252.57 249.9 279.26 273.01 292.61 296.13 279.26"/>
  <g class="cls-6">
    <text class="cls-5" transform="translate(255.47 271.2)"><tspan x="0" y="0">(3,-1)</tspan></text>
  </g>
  <polygon class="cls-2" points="64.95 359.35 64.95 332.65 41.83 319.3 18.71 332.65 18.71 359.35 41.83 372.69 64.95 359.35"/>
  <g class="cls-6">
    <text class="cls-5" transform="translate(21.84 351.28)"><tspan x="0" y="0">(-1,-3)</tspan></text>
  </g>
  <polygon class="cls-2" points="134.3 319.3 134.3 292.61 111.18 279.26 88.07 292.61 88.07 319.3 111.18 332.65 134.3 319.3"/>
  <polygon class="cls-2" points="180.54 319.3 180.54 292.61 157.42 279.26 134.3 292.61 134.3 319.3 157.42 332.65 180.54 319.3"/>
  <polygon class="cls-2" points="226.78 319.3 226.78 292.61 203.66 279.26 180.54 292.61 180.54 319.3 203.66 332.65 226.78 319.3"/>
  <polygon class="cls-2" points="273.01 319.3 273.01 292.61 249.9 279.26 226.78 292.61 226.78 319.3 249.9 332.65 273.01 319.3"/>
  <g class="cls-6">
    <text class="cls-5" transform="translate(232.35 311.24)"><tspan x="0" y="0">(3,-2)</tspan></text>
  </g>
  <polygon class="cls-2" points="319.25 319.3 319.25 292.61 296.13 279.26 273.01 292.61 273.01 319.3 296.13 332.65 319.25 319.3"/>
  <polygon class="cls-2" points="88.07 319.3 88.07 292.61 64.95 279.26 41.83 292.61 41.83 319.3 64.95 332.65 88.07 319.3"/>
  <g class="cls-6">
    <text class="cls-5" transform="translate(44.96 311.24)"><tspan x="0" y="0">(-1,-2)</tspan></text>
  </g>
  <polygon class="cls-2" points="157.42 279.26 157.42 252.57 134.3 239.22 111.18 252.57 111.18 279.26 134.3 292.61 157.42 279.26"/>
  <g class="cls-6">
    <text class="cls-5" transform="translate(116.75 271.2)"><tspan x="0" y="0">(0,-1)</tspan></text>
  </g>
  <polygon class="cls-2" points="203.66 279.26 203.66 252.57 180.54 239.22 157.42 252.57 157.42 279.26 180.54 292.61 203.66 279.26"/>
  <g class="cls-6">
    <text class="cls-5" transform="translate(162.99 271.2)"><tspan x="0" y="0">(1,-1)</tspan></text>
  </g>
  <polygon class="cls-2" points="249.9 279.26 249.9 252.57 226.78 239.22 203.66 252.57 203.66 279.26 226.78 292.61 249.9 279.26"/>
  <polygon class="cls-2" points="342.37 279.26 342.37 252.57 319.25 239.22 296.13 252.57 296.13 279.26 319.25 292.61 342.37 279.26"/>
  <g class="cls-6">
    <text class="cls-5" transform="translate(301.7 271.2)"><tspan x="0" y="0">(4,-1)</tspan></text>
  </g>
  <polygon class="cls-2" points="64.95 279.26 64.95 252.57 41.83 239.22 18.71 252.57 18.71 279.26 41.83 292.61 64.95 279.26"/>
  <g class="cls-6">
    <text class="cls-5" transform="translate(21.84 271.2)"><tspan x="0" y="0">(-2,-1)</tspan></text>
  </g>
  <polygon class="cls-2" points="111.18 279.26 111.18 252.57 88.07 239.22 64.95 252.57 64.95 279.26 88.07 292.61 111.18 279.26"/>
  <g class="cls-6">
    <text class="cls-4" transform="translate(364.3 220.7)"><tspan x="0" y="0">X</tspan></text>
  </g>
  <g class="cls-6">
    <text class="cls-4" transform="translate(273.02 46.24)"><tspan x="0" y="0">Y</tspan></text>
  </g>
  <polygon class="cls-3" points="157.42 225.87 226.86 265.96 249.9 225.88 226.89 185.8 157.42 225.87"/>
  <polygon class="cls-3" points="157.42 225.87 87.98 185.78 64.94 225.86 87.95 265.94 157.42 225.87"/>
  <polygon class="cls-3" points="157.42 225.87 226.86 185.77 203.66 145.78 157.45 145.67 157.42 225.87"/>
  <polygon class="cls-3" points="157.42 225.87 87.98 265.97 111.18 305.96 157.39 306.07 157.42 225.87"/>
  <polygon class="cls-3" points="157.42 225.87 157.41 145.69 111.18 145.78 87.98 185.74 157.42 225.87"/>
  <polygon class="cls-3" points="157.42 225.87 157.43 306.05 203.66 305.96 226.86 266 157.42 225.87"/>
  <polygon class="cls-3" points="296.14 145.79 365.59 185.87 388.62 145.79 365.62 105.71 296.14 145.79"/>
  <polygon class="cls-3" points="296.14 145.79 226.7 105.7 203.66 145.78 226.67 185.86 296.14 145.79"/>
  <polygon class="cls-3" points="296.14 145.79 365.58 105.69 342.39 65.7 296.18 65.58 296.14 145.79"/>
  <polygon class="cls-3" points="296.14 145.79 226.71 185.88 249.9 225.88 296.11 225.99 296.14 145.79"/>
  <polygon class="cls-3" points="296.14 145.79 296.14 65.61 249.91 65.69 226.7 105.66 296.14 145.79"/>
  <polygon class="cls-3" points="296.14 145.79 296.15 225.97 342.38 225.88 365.59 185.92 296.14 145.79"/>
  <polygon class="cls-3" points="296.14 305.97 226.69 265.88 203.66 305.96 226.66 346.04 296.14 305.97"/>
  <polygon class="cls-3" points="296.14 305.97 365.57 265.87 342.38 225.88 296.17 225.76 296.14 305.97"/>
  <polygon class="cls-3" points="296.14 305.97 226.7 346.06 249.89 386.06 296.1 386.17 296.14 305.97"/>
  <polygon class="cls-3" points="296.14 305.97 296.13 225.79 249.9 225.88 226.69 265.84 296.14 305.97"/>
  <polygon class="cls-3" points="157.41 386.05 226.85 345.95 203.66 305.96 157.44 305.85 157.41 386.05"/>
  <polygon class="cls-3" points="157.41 386.05 157.41 305.87 111.18 305.96 87.97 345.92 157.41 386.05"/>
  <polygon class="cls-3" points="18.7 305.95 88.14 346.04 111.18 305.96 88.17 265.88 18.7 305.95"/>
  <polygon class="cls-3" points="18.7 305.95 88.13 265.86 64.94 225.86 18.73 225.75 18.7 305.95"/>
  <polygon class="cls-3" points="18.7 305.95 18.7 386.13 64.93 386.05 88.14 346.08 18.7 305.95"/>
  <polygon class="cls-3" points="157.43 65.69 87.99 105.79 111.18 145.78 157.4 145.89 157.43 65.69"/>
  <polygon class="cls-3" points="157.43 65.69 157.43 145.87 203.66 145.78 226.87 105.82 157.43 65.69"/>
  <polygon class="cls-3" points="18.7 145.77 88.15 185.86 111.18 145.78 88.18 105.7 18.7 145.77"/>
  <polygon class="cls-3" points="18.7 145.77 18.71 225.95 64.94 225.86 88.15 185.9 18.7 145.77"/>
</svg>