<?xml version="1.0" encoding="UTF-8"?>
<svg id="Layer_1" data-name="Layer 1" xmlns="http://www.w3.org/2000/svg" version="1.1" viewBox="0 0 525 525">
  <defs>
    <style>
      .cls-1 {
        font-size: 36px;
      }

      .cls-1, .cls-2, .cls-3, .cls-4 {
        isolation: isolate;
      }

      .cls-1, .cls-4 {
        fill: #010101;
        font-family: MyriadPro-Bold, 'Myriad Pro';
        font-weight: 700;
      }

      .cls-5 {
        stroke: #27aae1;
        stroke-linejoin: round;
        stroke-width: 5px;
      }

      .cls-5, .cls-6 {
        fill: none;
      }

      .cls-6 {
        stroke: #7f1f17;
        stroke-width: 10px;
      }

      .cls-6, .cls-2 {
        stroke-miterlimit: 10;
      }

      .cls-7 {
        fill: #7f1f17;
        stroke-width: 0px;
      }

      .cls-2 {
        fill: #fff;
        opacity: .77;
        stroke: #231f20;
      }

      .cls-4 {
        font-size: 20.42px;
      }
    </style>
  </defs>
  <g>
    <polyline class="cls-6" points="239.35 58.16 241.38 279.06 486.01 279.06"/>
    <path class="cls-7" d="M239.42,65.34l14.49,8.63.32-.5-9.55-23.41c-1.88-8.17-3.75-16.34-5.63-24.51-1.73,8.2-3.45,16.41-5.18,24.61l-9.12,23.58.25.49,14.41-8.9h0Z"/>
    <path class="cls-7" d="M478.83,279.06l-8.77-14.41.49-.33,23.5,9.33c8.19,1.8,16.37,3.6,24.56,5.4-8.19,1.8-16.37,3.6-24.56,5.4l-23.5,9.33-.49-.25,8.77-14.49v.02h0Z"/>
  </g>
  <g class="cls-3">
    <g class="cls-3">
      <text class="cls-1" transform="translate(497.06 324.67)"><tspan x="0" y="0">X</tspan></text>
    </g>
  </g>
  <g class="cls-3">
    <g class="cls-3">
      <text class="cls-1" transform="translate(251.57 37.54)"><tspan x="0" y="0">Y</tspan></text>
    </g>
  </g>
  <rect class="cls-2" x="20.32" y="58.01" width="63.16" height="63.16"/>
  <rect class="cls-2" x="83.48" y="58.01" width="63.16" height="63.16"/>
  <rect class="cls-2" x="146.64" y="58.01" width="63.16" height="63.16"/>
  <rect class="cls-2" x="209.8" y="58.01" width="63.16" height="63.16"/>
  <rect class="cls-2" x="272.96" y="58.01" width="63.16" height="63.16"/>
  <rect class="cls-2" x="336.11" y="58.01" width="63.16" height="63.16"/>
  <rect class="cls-2" x="399.27" y="58.01" width="63.16" height="63.16"/>
  <rect class="cls-2" x="20.32" y="121.17" width="63.16" height="63.16"/>
  <rect class="cls-2" x="83.48" y="121.17" width="63.16" height="63.16"/>
  <rect class="cls-2" x="146.64" y="121.17" width="63.16" height="63.16"/>
  <rect class="cls-2" x="209.8" y="121.17" width="63.16" height="63.16"/>
  <rect class="cls-2" x="272.96" y="121.17" width="63.16" height="63.16"/>
  <rect class="cls-2" x="336.11" y="121.17" width="63.16" height="63.16"/>
  <rect class="cls-2" x="399.27" y="121.17" width="63.16" height="63.16"/>
  <rect class="cls-2" x="20.32" y="184.32" width="63.16" height="63.16"/>
  <rect class="cls-2" x="83.48" y="184.32" width="63.16" height="63.16"/>
  <rect class="cls-2" x="146.64" y="184.32" width="63.16" height="63.16"/>
  <rect class="cls-2" x="209.8" y="184.32" width="63.16" height="63.16"/>
  <rect class="cls-2" x="272.96" y="184.32" width="63.16" height="63.16"/>
  <rect class="cls-2" x="336.11" y="184.32" width="63.16" height="63.16"/>
  <rect class="cls-2" x="399.27" y="184.32" width="63.16" height="63.16"/>
  <rect class="cls-2" x="20.32" y="247.48" width="63.16" height="63.16"/>
  <rect class="cls-2" x="83.48" y="247.48" width="63.16" height="63.16"/>
  <rect class="cls-2" x="146.64" y="247.48" width="63.16" height="63.16"/>
  <rect class="cls-2" x="209.8" y="247.48" width="63.16" height="63.16"/>
  <rect class="cls-2" x="272.96" y="247.48" width="63.16" height="63.16"/>
  <rect class="cls-2" x="336.11" y="247.48" width="63.16" height="63.16"/>
  <rect class="cls-2" x="399.27" y="247.48" width="63.16" height="63.16"/>
  <rect class="cls-2" x="20.32" y="310.64" width="63.16" height="63.16"/>
  <rect class="cls-2" x="83.48" y="310.64" width="63.16" height="63.16"/>
  <rect class="cls-2" x="146.64" y="310.64" width="63.16" height="63.16"/>
  <rect class="cls-2" x="209.8" y="310.64" width="63.16" height="63.16"/>
  <rect class="cls-2" x="272.96" y="310.64" width="63.16" height="63.16"/>
  <rect class="cls-2" x="336.11" y="310.64" width="63.16" height="63.16"/>
  <rect class="cls-2" x="399.27" y="310.64" width="63.16" height="63.16"/>
  <rect class="cls-2" x="20.32" y="373.8" width="63.16" height="63.16"/>
  <rect class="cls-2" x="83.48" y="373.8" width="63.16" height="63.16"/>
  <rect class="cls-2" x="146.64" y="373.8" width="63.16" height="63.16"/>
  <rect class="cls-2" x="209.8" y="373.8" width="63.16" height="63.16"/>
  <rect class="cls-2" x="272.96" y="373.8" width="63.16" height="63.16"/>
  <rect class="cls-2" x="336.11" y="373.8" width="63.16" height="63.16"/>
  <rect class="cls-2" x="399.27" y="373.8" width="63.16" height="63.16"/>
  <rect class="cls-2" x="20.32" y="436.96" width="63.16" height="63.16"/>
  <rect class="cls-2" x="83.48" y="436.96" width="63.16" height="63.16"/>
  <rect class="cls-2" x="146.64" y="436.96" width="63.16" height="63.16"/>
  <rect class="cls-2" x="209.8" y="436.96" width="63.16" height="63.16"/>
  <rect class="cls-2" x="272.96" y="436.96" width="63.16" height="63.16"/>
  <rect class="cls-2" x="336.11" y="436.96" width="63.16" height="63.16"/>
  <rect class="cls-2" x="399.27" y="436.96" width="63.16" height="63.16"/>
  <g class="cls-3">
    <g class="cls-3">
      <text class="cls-4" transform="translate(284.14 285.05)"><tspan x="0" y="0">(1,0)</tspan></text>
    </g>
  </g>
  <g class="cls-3">
    <g class="cls-3">
      <text class="cls-4" transform="translate(154.54 285.05)"><tspan x="0" y="0">(-1,0)</tspan></text>
    </g>
  </g>
  <g class="cls-3">
    <g class="cls-3">
      <text class="cls-4" transform="translate(154.54 221.9)"><tspan x="0" y="0">(-1,1)</tspan></text>
    </g>
  </g>
  <g class="cls-3">
    <g class="cls-3">
      <text class="cls-4" transform="translate(220.98 221.9)"><tspan x="0" y="0">(0,1)</tspan></text>
    </g>
  </g>
  <g class="cls-3">
    <g class="cls-3">
      <text class="cls-4" transform="translate(284.14 221.9)"><tspan x="0" y="0">(1,1)</tspan></text>
    </g>
  </g>
  <g class="cls-3">
    <g class="cls-3">
      <text class="cls-4" transform="translate(151.25 348.21)"><tspan x="0" y="0">(-1,-1)</tspan></text>
    </g>
  </g>
  <g class="cls-3">
    <g class="cls-3">
      <text class="cls-4" transform="translate(220.98 285.05)"><tspan x="0" y="0">(0,0)</tspan></text>
    </g>
  </g>
  <g class="cls-3">
    <g class="cls-3">
      <text class="cls-4" transform="translate(217.7 348.21)"><tspan x="0" y="0">(0,-1)</tspan></text>
    </g>
  </g>
  <g class="cls-3">
    <g class="cls-3">
      <text class="cls-4" transform="translate(280.85 348.21)"><tspan x="0" y="0">(1,-1)</tspan></text>
    </g>
  </g>
  <rect class="cls-5" x="413.38" y="451.06" width="37.22" height="37.22"/>
  <rect class="cls-5" x="286.31" y="451.06" width="37.22" height="37.22"/>
  <polygon class="cls-5" points="413.38 488.28 413.38 451.06 387.07 424.75 349.85 424.75 323.53 451.06 323.53 488.28 349.85 514.6 387.07 514.6 413.38 488.28"/>
  <rect class="cls-5" x="159.23" y="451.06" width="37.22" height="37.22"/>
  <polygon class="cls-5" points="286.31 488.28 286.31 451.06 259.99 424.75 222.77 424.75 196.45 451.06 196.45 488.28 222.77 514.6 259.99 514.6 286.31 488.28"/>
  <rect class="cls-5" x="32.16" y="451.06" width="37.22" height="37.22"/>
  <polygon class="cls-5" points="159.23 488.28 159.23 451.06 132.91 424.75 95.69 424.75 69.38 451.06 69.38 488.28 95.69 514.6 132.91 514.6 159.23 488.28"/>
  <rect class="cls-5" x="95.69" y="387.53" width="37.22" height="37.22"/>
  <polygon class="cls-5" points="5.84 387.53 5.84 424.75 32.16 451.06 69.38 451.06 95.69 424.75 95.69 387.53 69.38 361.21 32.16 361.21 5.84 387.53"/>
  <rect class="cls-5" x="222.77" y="387.53" width="37.22" height="37.22"/>
  <polygon class="cls-5" points="132.91 387.53 132.91 424.75 159.23 451.06 196.45 451.06 222.77 424.75 222.77 387.53 196.45 361.21 159.23 361.21 132.91 387.53"/>
  <rect class="cls-5" x="349.85" y="387.53" width="37.22" height="37.22"/>
  <polygon class="cls-5" points="259.99 387.53 259.99 424.75 286.31 451.06 323.53 451.06 349.85 424.75 349.85 387.53 323.53 361.21 286.31 361.21 259.99 387.53"/>
  <polygon class="cls-5" points="387.07 387.53 387.07 424.75 413.38 451.06 450.6 451.06 476.92 424.75 476.92 387.53 450.6 361.21 413.38 361.21 387.07 387.53"/>
  <rect class="cls-5" x="413.38" y="323.99" width="37.22" height="37.22"/>
  <rect class="cls-5" x="286.31" y="323.99" width="37.22" height="37.22"/>
  <polygon class="cls-5" points="413.38 361.21 413.38 323.99 387.07 297.67 349.85 297.67 323.53 323.99 323.53 361.21 349.85 387.53 387.07 387.53 413.38 361.21"/>
  <rect class="cls-5" x="159.23" y="323.99" width="37.22" height="37.22"/>
  <polygon class="cls-5" points="286.31 361.21 286.31 323.99 259.99 297.67 222.77 297.67 196.45 323.99 196.45 361.21 222.77 387.53 259.99 387.53 286.31 361.21"/>
  <rect class="cls-5" x="32.16" y="323.99" width="37.22" height="37.22"/>
  <polygon class="cls-5" points="159.23 361.21 159.23 323.99 132.91 297.67 95.69 297.67 69.38 323.99 69.38 361.21 95.69 387.53 132.91 387.53 159.23 361.21"/>
  <rect class="cls-5" x="95.69" y="260.45" width="37.22" height="37.22"/>
  <polygon class="cls-5" points="5.84 260.45 5.84 297.67 32.16 323.99 69.38 323.99 95.69 297.67 95.69 260.45 69.38 234.13 32.16 234.13 5.84 260.45"/>
  <rect class="cls-5" x="222.77" y="260.45" width="37.22" height="37.22"/>
  <polygon class="cls-5" points="132.91 260.45 132.91 297.67 159.23 323.99 196.45 323.99 222.77 297.67 222.77 260.45 196.45 234.13 159.23 234.13 132.91 260.45"/>
  <rect class="cls-5" x="349.85" y="260.45" width="37.22" height="37.22"/>
  <polygon class="cls-5" points="259.99 260.45 259.99 297.67 286.31 323.99 323.53 323.99 349.85 297.67 349.85 260.45 323.53 234.13 286.31 234.13 259.99 260.45"/>
  <polygon class="cls-5" points="387.07 260.45 387.07 297.67 413.38 323.99 450.6 323.99 476.92 297.67 476.92 260.45 450.6 234.13 413.38 234.13 387.07 260.45"/>
  <rect class="cls-5" x="413.38" y="196.91" width="37.22" height="37.22"/>
  <rect class="cls-5" x="286.31" y="196.91" width="37.22" height="37.22"/>
  <polygon class="cls-5" points="413.38 234.13 413.38 196.91 387.07 170.59 349.85 170.59 323.53 196.91 323.53 234.13 349.85 260.45 387.07 260.45 413.38 234.13"/>
  <rect class="cls-5" x="159.23" y="196.91" width="37.22" height="37.22"/>
  <polygon class="cls-5" points="286.31 234.13 286.31 196.91 259.99 170.59 222.77 170.59 196.45 196.91 196.45 234.13 222.77 260.45 259.99 260.45 286.31 234.13"/>
  <rect class="cls-5" x="32.16" y="196.91" width="37.22" height="37.22"/>
  <polygon class="cls-5" points="159.23 234.13 159.23 196.91 132.91 170.59 95.69 170.59 69.38 196.91 69.38 234.13 95.69 260.45 132.91 260.45 159.23 234.13"/>
  <rect class="cls-5" x="95.69" y="133.37" width="37.22" height="37.22"/>
  <polygon class="cls-5" points="5.84 133.37 5.84 170.59 32.16 196.91 69.38 196.91 95.69 170.59 95.69 133.37 69.38 107.06 32.16 107.06 5.84 133.37"/>
  <rect class="cls-5" x="222.77" y="133.37" width="37.22" height="37.22"/>
  <polygon class="cls-5" points="132.91 133.37 132.91 170.59 159.23 196.91 196.45 196.91 222.77 170.59 222.77 133.37 196.45 107.06 159.23 107.06 132.91 133.37"/>
  <rect class="cls-5" x="349.85" y="133.37" width="37.22" height="37.22"/>
  <polygon class="cls-5" points="259.99 133.37 259.99 170.59 286.31 196.91 323.53 196.91 349.85 170.59 349.85 133.37 323.53 107.06 286.31 107.06 259.99 133.37"/>
  <polygon class="cls-5" points="387.07 133.37 387.07 170.59 413.38 196.91 450.6 196.91 476.92 170.59 476.92 133.37 450.6 107.06 413.38 107.06 387.07 133.37"/>
  <rect class="cls-5" x="413.38" y="69.84" width="37.22" height="37.22"/>
  <rect class="cls-5" x="286.31" y="69.84" width="37.22" height="37.22"/>
  <polygon class="cls-5" points="413.38 107.06 413.38 69.84 387.07 43.52 349.85 43.52 323.53 69.84 323.53 107.06 349.85 133.37 387.07 133.37 413.38 107.06"/>
  <rect class="cls-5" x="159.23" y="69.84" width="37.22" height="37.22"/>
  <polygon class="cls-5" points="286.31 107.06 286.31 69.84 259.99 43.52 222.77 43.52 196.45 69.84 196.45 107.06 222.77 133.37 259.99 133.37 286.31 107.06"/>
  <rect class="cls-5" x="32.16" y="69.84" width="37.22" height="37.22"/>
  <polygon class="cls-5" points="159.23 107.06 159.23 69.84 132.91 43.52 95.69 43.52 69.38 69.84 69.38 107.06 95.69 133.37 132.91 133.37 159.23 107.06"/>
</svg>