<?xml version="1.0" encoding="UTF-8"?>
<svg id="Layer_1" data-name="Layer 1" xmlns="http://www.w3.org/2000/svg" version="1.1" viewBox="0 0 510 510">
  <defs>
    <style>
      .cls-1 {
        fill: none;
        stroke: #7f1f17;
        stroke-width: 10px;
      }

      .cls-1, .cls-2 {
        stroke-miterlimit: 10;
      }

      .cls-3 {
        font-size: 20.42px;
      }

      .cls-3, .cls-4 {
        fill: #010101;
        font-family: MyriadPro-Bold, 'Myriad Pro';
        font-weight: 700;
      }

      .cls-4 {
        font-size: 36px;
      }

      .cls-5 {
        fill: #7f1f17;
        stroke-width: 0px;
      }

      .cls-2 {
        fill: #fff;
        opacity: .77;
        stroke: #231f20;
      }
    </style>
  </defs>
  <g>
    <polyline class="cls-1" points="224.85 58.66 226.88 279.56 471.51 279.56"/>
    <path class="cls-5" d="M224.92,65.84l14.49,8.63.32-.5-9.55-23.41c-1.88-8.17-3.75-16.34-5.63-24.51-1.73,8.2-3.45,16.41-5.18,24.61l-9.12,23.58.25.49,14.41-8.9Z"/>
    <path class="cls-5" d="M464.33,279.56l-8.77-14.41.49-.33,23.5,9.33c8.19,1.8,16.37,3.6,24.56,5.4-8.19,1.8-16.37,3.6-24.56,5.4l-23.5,9.33-.49-.25,8.77-14.49Z"/>
  </g>
  <text class="cls-4" transform="translate(482.56 325.17)"><tspan x="0" y="0">X</tspan></text>
  <text class="cls-4" transform="translate(237.07 38.04)"><tspan x="0" y="0">Y</tspan></text>
  <rect class="cls-2" x="5.82" y="58.51" width="63.16" height="63.16"/>
  <rect class="cls-2" x="68.98" y="58.51" width="63.16" height="63.16"/>
  <rect class="cls-2" x="132.14" y="58.51" width="63.16" height="63.16"/>
  <rect class="cls-2" x="195.3" y="58.51" width="63.16" height="63.16"/>
  <rect class="cls-2" x="258.46" y="58.51" width="63.16" height="63.16"/>
  <rect class="cls-2" x="321.61" y="58.51" width="63.16" height="63.16"/>
  <rect class="cls-2" x="384.77" y="58.51" width="63.16" height="63.16"/>
  <rect class="cls-2" x="5.82" y="121.67" width="63.16" height="63.16"/>
  <rect class="cls-2" x="68.98" y="121.67" width="63.16" height="63.16"/>
  <rect class="cls-2" x="132.14" y="121.67" width="63.16" height="63.16"/>
  <rect class="cls-2" x="195.3" y="121.67" width="63.16" height="63.16"/>
  <rect class="cls-2" x="258.46" y="121.67" width="63.16" height="63.16"/>
  <rect class="cls-2" x="321.61" y="121.67" width="63.16" height="63.16"/>
  <rect class="cls-2" x="384.77" y="121.67" width="63.16" height="63.16"/>
  <rect class="cls-2" x="5.82" y="184.82" width="63.16" height="63.16"/>
  <rect class="cls-2" x="68.98" y="184.82" width="63.16" height="63.16"/>
  <rect class="cls-2" x="132.14" y="184.82" width="63.16" height="63.16"/>
  <rect class="cls-2" x="195.3" y="184.82" width="63.16" height="63.16"/>
  <rect class="cls-2" x="258.46" y="184.82" width="63.16" height="63.16"/>
  <rect class="cls-2" x="321.61" y="184.82" width="63.16" height="63.16"/>
  <rect class="cls-2" x="384.77" y="184.82" width="63.16" height="63.16"/>
  <rect class="cls-2" x="5.82" y="247.98" width="63.16" height="63.16"/>
  <rect class="cls-2" x="68.98" y="247.98" width="63.16" height="63.16"/>
  <rect class="cls-2" x="132.14" y="247.98" width="63.16" height="63.16"/>
  <rect class="cls-2" x="195.3" y="247.98" width="63.16" height="63.16"/>
  <rect class="cls-2" x="258.46" y="247.98" width="63.16" height="63.16"/>
  <rect class="cls-2" x="321.61" y="247.98" width="63.16" height="63.16"/>
  <rect class="cls-2" x="384.77" y="247.98" width="63.16" height="63.16"/>
  <rect class="cls-2" x="5.82" y="311.14" width="63.16" height="63.16"/>
  <rect class="cls-2" x="68.98" y="311.14" width="63.16" height="63.16"/>
  <rect class="cls-2" x="132.14" y="311.14" width="63.16" height="63.16"/>
  <rect class="cls-2" x="195.3" y="311.14" width="63.16" height="63.16"/>
  <rect class="cls-2" x="258.46" y="311.14" width="63.16" height="63.16"/>
  <rect class="cls-2" x="321.61" y="311.14" width="63.16" height="63.16"/>
  <rect class="cls-2" x="384.77" y="311.14" width="63.16" height="63.16"/>
  <rect class="cls-2" x="5.82" y="374.3" width="63.16" height="63.16"/>
  <rect class="cls-2" x="68.98" y="374.3" width="63.16" height="63.16"/>
  <rect class="cls-2" x="132.14" y="374.3" width="63.16" height="63.16"/>
  <rect class="cls-2" x="195.3" y="374.3" width="63.16" height="63.16"/>
  <rect class="cls-2" x="258.46" y="374.3" width="63.16" height="63.16"/>
  <rect class="cls-2" x="321.61" y="374.3" width="63.16" height="63.16"/>
  <rect class="cls-2" x="384.77" y="374.3" width="63.16" height="63.16"/>
  <rect class="cls-2" x="5.82" y="437.46" width="63.16" height="63.16"/>
  <rect class="cls-2" x="68.98" y="437.46" width="63.16" height="63.16"/>
  <rect class="cls-2" x="132.14" y="437.46" width="63.16" height="63.16"/>
  <rect class="cls-2" x="195.3" y="437.46" width="63.16" height="63.16"/>
  <rect class="cls-2" x="258.46" y="437.46" width="63.16" height="63.16"/>
  <rect class="cls-2" x="321.61" y="437.46" width="63.16" height="63.16"/>
  <rect class="cls-2" x="384.77" y="437.46" width="63.16" height="63.16"/>
  <text class="cls-3" transform="translate(269.64 285.55)"><tspan x="0" y="0">(1,0)</tspan></text>
  <text class="cls-3" transform="translate(140.04 285.55)"><tspan x="0" y="0">(-1,0)</tspan></text>
  <text class="cls-3" transform="translate(140.04 222.4)"><tspan x="0" y="0">(-1,1)</tspan></text>
  <text class="cls-3" transform="translate(206.48 222.4)"><tspan x="0" y="0">(0,1)</tspan></text>
  <text class="cls-3" transform="translate(269.64 222.4)"><tspan x="0" y="0">(1,1)</tspan></text>
  <text class="cls-3" transform="translate(136.75 348.71)"><tspan x="0" y="0">(-1,-1)</tspan></text>
  <text class="cls-3" transform="translate(206.48 285.55)"><tspan x="0" y="0">(0,0)</tspan></text>
  <text class="cls-3" transform="translate(203.2 348.71)"><tspan x="0" y="0">(0,-1)</tspan></text>
  <text class="cls-3" transform="translate(266.35 348.71)"><tspan x="0" y="0">(1,-1)</tspan></text>
</svg>